<svg width="48" height="48" viewBox="0 0 48 48" fill="none" xmlns="http://www.w3.org/2000/svg">
<path d="M38 7.29199H40C40.5304 7.29199 41.0391 7.50271 41.4142 7.87778C41.7893 8.25285 42 8.76156 42 9.29199V45C42 45.5304 41.7893 46.0391 41.4142 46.4142C41.0391 46.7893 40.5304 47 40 47H8C7.46957 47 6.96086 46.7893 6.58579 46.4142C6.21071 46.0391 6 45.5304 6 45V9.29199C6 8.76156 6.21071 8.25285 6.58579 7.87778C6.96086 7.50271 7.46957 7.29199 8 7.29199H10" stroke="white" stroke-width="2" stroke-linecap="round" stroke-linejoin="round"/>
<path d="M28 5C28 3.93913 27.5786 2.92172 26.8284 2.17157C26.0783 1.42143 25.0609 1 24 1C22.9391 1 21.9217 1.42143 21.1716 2.17157C20.4214 2.92172 20 3.93913 20 5H15C14.7348 5 14.4804 5.10536 14.2929 5.29289C14.1054 5.48043 14 5.73478 14 6V10C14 10.2652 14.1054 10.5196 14.2929 10.7071C14.4804 10.8946 14.7348 11 15 11H33C33.2652 11 33.5196 10.8946 33.7071 10.7071C33.8946 10.5196 34 10.2652 34 10V6C34 5.73478 33.8946 5.48043 33.7071 5.29289C33.5196 5.10536 33.2652 5 33 5H28Z" stroke="white" stroke-width="2" stroke-linecap="round" stroke-linejoin="round"/>
<path d="M32 27C32 28.5823 31.5308 30.129 30.6518 31.4446C29.7727 32.7602 28.5233 33.7855 27.0615 34.391C25.5997 34.9965 23.9911 35.155 22.4393 34.8463C20.8874 34.5376 19.462 33.7757 18.3431 32.6569C17.2243 31.538 16.4624 30.1126 16.1537 28.5607C15.845 27.0089 16.0035 25.4003 16.609 23.9385C17.2145 22.4767 18.2399 21.2273 19.5554 20.3482C20.871 19.4692 22.4178 19 24 19" stroke="white" stroke-width="2" stroke-linecap="round" stroke-linejoin="round"/>
<path d="M32 21L24.708 28.292C24.6151 28.3851 24.5048 28.459 24.3833 28.5094C24.2618 28.5598 24.1315 28.5858 24 28.5858C23.8685 28.5858 23.7382 28.5598 23.6167 28.5094C23.4952 28.459 23.3849 28.3851 23.292 28.292L21 26" stroke="white" stroke-width="2" stroke-linecap="round" stroke-linejoin="round"/>
</svg>
