<svg width="48" height="48" viewBox="0 0 48 48" fill="none" xmlns="http://www.w3.org/2000/svg">
<path d="M15 39H19" stroke="white" stroke-width="2" stroke-linecap="round" stroke-linejoin="round"/>
<path d="M28 43.01H4C3.20457 43.0037 2.44366 42.6842 1.88212 42.1208C1.32059 41.5574 1.00366 40.7954 1 40V4C1.00264 3.20516 1.31955 2.44363 1.88159 1.88159C2.44363 1.31955 3.20516 1.00264 4 1H30C30.7956 1 31.5587 1.31607 32.1213 1.87868C32.6839 2.44129 33 3.20435 33 4V31" stroke="white" stroke-width="2" stroke-linecap="round" stroke-linejoin="round"/>
<path d="M24.852 35H5V6C5 5.73478 5.10536 5.48043 5.29289 5.29289C5.48043 5.10536 5.73478 5 6 5H28C28.2652 5 28.5196 5.10536 28.7071 5.29289C28.8946 5.48043 29 5.73478 29 6V27.874" stroke="white" stroke-width="2" stroke-linecap="round" stroke-linejoin="round"/>
<path d="M47 47L41 39V29.882C41 26.494 36.838 23.282 33 20" stroke="white" stroke-width="2" stroke-linecap="round" stroke-linejoin="round"/>
<path d="M35 33L30.5 28.5C30.1021 28.1023 29.5626 27.879 29 27.879C28.4375 27.879 27.8979 28.1023 27.5 28.5C27.1749 28.9325 26.999 29.4589 26.999 30C26.999 30.5411 27.1749 31.0675 27.5 31.5L33 38V40C33 42 37 47 37 47" stroke="white" stroke-width="2" stroke-linecap="round" stroke-linejoin="round"/>
<path d="M11 27H23" stroke="white" stroke-width="2" stroke-linecap="round" stroke-linejoin="round"/>
<path d="M11 31H23" stroke="white" stroke-width="2" stroke-linecap="round" stroke-linejoin="round"/>
<path d="M23 14C23 13.7348 22.8946 13.4804 22.7071 13.2929C22.5196 13.1054 22.2652 13 22 13H19V10C19 9.73478 18.8946 9.48043 18.7071 9.29289C18.5196 9.10536 18.2652 9 18 9H16C15.7348 9 15.4804 9.10536 15.2929 9.29289C15.1054 9.48043 15 9.73478 15 10V13H12C11.7348 13 11.4804 13.1054 11.2929 13.2929C11.1054 13.4804 11 13.7348 11 14V16C11 16.2652 11.1054 16.5196 11.2929 16.7071C11.4804 16.8946 11.7348 17 12 17H15V20C15 20.2652 15.1054 20.5196 15.2929 20.7071C15.4804 20.8946 15.7348 21 16 21H18C18.2652 21 18.5196 20.8946 18.7071 20.7071C18.8946 20.5196 19 20.2652 19 20V17H22C22.2652 17 22.5196 16.8946 22.7071 16.7071C22.8946 16.5196 23 16.2652 23 16V14Z" stroke="white" stroke-width="2" stroke-linecap="round" stroke-linejoin="round"/>
</svg>
