<svg width="48" height="48" viewBox="0 0 48 48" fill="none" xmlns="http://www.w3.org/2000/svg">
<g clip-path="url(#clip0_1257_17565)">
<path d="M27.028 47H21.028" stroke="white" stroke-width="2" stroke-linecap="round" stroke-linejoin="round"/>
<path d="M29.028 43H19.028" stroke="white" stroke-width="2" stroke-linecap="round" stroke-linejoin="round"/>
<path d="M24.028 1V7" stroke="white" stroke-width="2" stroke-linecap="round" stroke-linejoin="round"/>
<path d="M7.05591 8.03L11.2999 12.272" stroke="white" stroke-width="2" stroke-linecap="round" stroke-linejoin="round"/>
<path d="M40.998 8.03L36.756 12.272" stroke="white" stroke-width="2" stroke-linecap="round" stroke-linejoin="round"/>
<path d="M1.02795 25H7.02795" stroke="white" stroke-width="2" stroke-linecap="round" stroke-linejoin="round"/>
<path d="M47.028 25H41.028" stroke="white" stroke-width="2" stroke-linecap="round" stroke-linejoin="round"/>
<path d="M36.028 25C36.0302 22.9361 35.5001 20.9065 34.4889 19.1073C33.4777 17.3081 32.0195 15.8001 30.2552 14.729C28.491 13.658 26.4803 13.0601 24.4175 12.9931C22.3546 12.9261 20.3094 13.3923 18.4794 14.3466C16.6493 15.3009 15.0964 16.7111 13.9705 18.4409C12.8447 20.1707 12.184 22.1617 12.0524 24.2214C11.9207 26.2811 12.3226 28.34 13.219 30.199C14.1155 32.0581 15.4763 33.6545 17.17 34.834C17.4348 35.0182 17.6511 35.2637 17.8005 35.5497C17.9499 35.8356 18.028 36.1534 18.0279 36.476V38C18.0279 38.2652 18.1333 38.5196 18.3208 38.7071C18.5084 38.8947 18.7627 39 19.0279 39H29.028C29.2932 39 29.5475 38.8947 29.7351 38.7071C29.9226 38.5196 30.028 38.2652 30.028 38V36.474C30.0279 36.1514 30.106 35.8336 30.2554 35.5477C30.4048 35.2617 30.6211 35.0162 30.886 34.832C32.4735 33.7305 33.7706 32.2606 34.6661 30.5484C35.5616 28.8361 36.0289 26.9323 36.028 25V25Z" stroke="white" stroke-width="2" stroke-linecap="round" stroke-linejoin="round"/>
</g>
<defs>
<clipPath id="clip0_1257_17565">
<rect width="48" height="48" fill="white"/>
</clipPath>
</defs>
</svg>
