<svg width="48" height="48" viewBox="0 0 48 48" fill="none" xmlns="http://www.w3.org/2000/svg">
<path d="M15.498 42.5H3.49805C2.96761 42.5 2.45891 42.2893 2.08383 41.9142C1.70876 41.5391 1.49805 41.0304 1.49805 40.5V3.5C1.49805 2.96957 1.70876 2.46086 2.08383 2.08579C2.45891 1.71071 2.96761 1.5 3.49805 1.5H25.498C26.0285 1.5 26.5372 1.71071 26.9123 2.08579C27.2873 2.46086 27.498 2.96957 27.498 3.5V12.5" stroke="white" stroke-width="2" stroke-linecap="round" stroke-linejoin="round"/>
<path d="M14.5021 14.5C16.1589 14.5 17.5021 13.1569 17.5021 11.5C17.5021 9.84315 16.1589 8.5 14.5021 8.5C12.8452 8.5 11.5021 9.84315 11.5021 11.5C11.5021 13.1569 12.8452 14.5 14.5021 14.5Z" stroke="white" stroke-width="2" stroke-linecap="round" stroke-linejoin="round"/>
<path d="M32.498 46.5C40.23 46.5 46.498 40.232 46.498 32.5C46.498 24.768 40.23 18.5 32.498 18.5C24.7661 18.5 18.498 24.768 18.498 32.5C18.498 40.232 24.7661 46.5 32.498 46.5Z" stroke="white" stroke-width="2" stroke-linecap="round" stroke-linejoin="round"/>
<path d="M32.498 32.14C34.5823 32.14 36.272 30.4503 36.272 28.366C36.272 26.2817 34.5823 24.592 32.498 24.592C30.4137 24.592 28.724 26.2817 28.724 28.366C28.724 30.4503 30.4137 32.14 32.498 32.14Z" stroke="white" stroke-width="2" stroke-linecap="round" stroke-linejoin="round"/>
<path d="M26.0281 39.686C26.0579 37.99 26.7526 36.3736 27.9625 35.1847C29.1724 33.9959 30.8008 33.3298 32.4971 33.3298C34.1933 33.3298 35.8217 33.9959 37.0317 35.1847C38.2416 36.3736 38.9363 37.99 38.9661 39.686" stroke="white" stroke-width="2" stroke-linecap="round" stroke-linejoin="round"/>
<path d="M23.2201 22.02L19.3621 17.364" stroke="white" stroke-width="2" stroke-linecap="round" stroke-linejoin="round"/>
</svg>
