<svg width="48" height="48" viewBox="0 0 48 48" fill="none" xmlns="http://www.w3.org/2000/svg">
<path d="M1 14C1 17.4478 2.36964 20.7544 4.80761 23.1924C7.24558 25.6304 10.5522 27 14 27C17.4478 27 20.7544 25.6304 23.1924 23.1924C25.6304 20.7544 27 17.4478 27 14C27 10.5522 25.6304 7.24558 23.1924 4.80761C20.7544 2.36964 17.4478 1 14 1C10.5522 1 7.24558 2.36964 4.80761 4.80761C2.36964 7.24558 1 10.5522 1 14V14Z" stroke="white" stroke-width="2" stroke-linecap="round" stroke-linejoin="round"/>
<path d="M34.464 44.364C32.7762 46.0518 30.487 47.0001 28.1 47.0001C25.7131 47.0001 23.4239 46.0518 21.736 44.364C20.0482 42.6762 19.1 40.387 19.1 38C19.1 35.613 20.0482 33.3238 21.736 31.636L31.636 21.736C33.3239 20.0482 35.6131 19.0999 38 19.0999C40.387 19.0999 42.6762 20.0482 44.364 21.736C46.0519 23.4238 47.0001 25.713 47.0001 28.1C47.0001 30.487 46.0519 32.7762 44.364 34.464L34.464 44.364Z" stroke="white" stroke-width="2" stroke-linecap="round" stroke-linejoin="round"/>
<path d="M26.686 26.686L39.414 39.414" stroke="white" stroke-width="2" stroke-linecap="round" stroke-linejoin="round"/>
<path d="M34.464 24.564C35.1633 23.8645 36.0544 23.3881 37.0245 23.1952C37.9947 23.0022 39.0002 23.1014 39.914 23.48" stroke="white" stroke-width="2" stroke-linecap="round" stroke-linejoin="round"/>
<path d="M26.652 11H1.34802" stroke="white" stroke-width="2" stroke-linecap="round" stroke-linejoin="round"/>
<path d="M1.34802 17H26.652" stroke="white" stroke-width="2" stroke-linecap="round" stroke-linejoin="round"/>
</svg>
