<svg width="48" height="48" viewBox="0 0 48 48" fill="none" xmlns="http://www.w3.org/2000/svg">
<path d="M8 21C10.7614 21 13 18.7614 13 16C13 13.2386 10.7614 11 8 11C5.23858 11 3 13.2386 3 16C3 18.7614 5.23858 21 8 21Z" stroke="white" stroke-width="2" stroke-linecap="round" stroke-linejoin="round"/>
<path d="M40 21C42.7614 21 45 18.7614 45 16C45 13.2386 42.7614 11 40 11C37.2386 11 35 13.2386 35 16C35 18.7614 37.2386 21 40 21Z" stroke="white" stroke-width="2" stroke-linecap="round" stroke-linejoin="round"/>
<path d="M33 47V30.944C30.4881 30.712 28.0983 29.7531 26.1227 28.1846C24.1471 26.616 22.6714 24.5058 21.876 22.112L20.154 16.95C20.0155 16.5358 19.9691 16.0965 20.018 15.6625C20.067 15.2286 20.21 14.8106 20.4372 14.4377C20.6644 14.0648 20.9703 13.746 21.3335 13.5035C21.6967 13.2611 22.1085 13.1008 22.54 13.034C23.2648 12.9446 23.9979 13.1125 24.6116 13.5084C25.2252 13.9042 25.6805 14.5029 25.898 15.2L27.57 20.214C28.0341 21.606 28.9238 22.8169 30.1135 23.6757C31.3032 24.5345 32.7327 24.9978 34.2 25H42.988C44.0488 25 45.0663 25.4214 45.8164 26.1716C46.5666 26.9217 46.988 27.9391 46.988 29V47" stroke="white" stroke-width="2" stroke-linecap="round" stroke-linejoin="round"/>
<path d="M20.838 19L20.438 20.214C19.9727 21.6099 19.0793 22.8236 17.8848 23.6827C16.6903 24.5419 15.2554 25.0028 13.784 25H5.00403C3.94316 25 2.92575 25.4214 2.1756 26.1716C1.42546 26.9217 1.00403 27.9391 1.00403 29V47" stroke="white" stroke-width="2" stroke-linecap="round" stroke-linejoin="round"/>
<path d="M15 47V30.944C16.7534 30.7819 18.4554 30.2648 20.0027 29.4241C21.5499 28.5835 22.9099 27.4369 24 26.054" stroke="white" stroke-width="2" stroke-linecap="round" stroke-linejoin="round"/>
<path d="M23 1V5" stroke="white" stroke-width="2" stroke-linecap="round" stroke-linejoin="round"/>
<path d="M30.828 5.172L28 8" stroke="white" stroke-width="2" stroke-linecap="round" stroke-linejoin="round"/>
<path d="M15.172 5.172L18 8" stroke="white" stroke-width="2" stroke-linecap="round" stroke-linejoin="round"/>
</svg>
