<svg width="48" height="48" viewBox="0 0 48 48" fill="none" xmlns="http://www.w3.org/2000/svg">
<path d="M24.012 24.652L12.494 12.636C11.4819 11.6247 10.8139 10.3206 10.5845 8.90838C10.3551 7.49619 10.5761 6.04761 11.216 4.76801V4.76801C11.6991 3.80232 12.4048 2.96525 13.2748 2.32581C14.1449 1.68636 15.1545 1.26286 16.2204 1.09019C17.2863 0.91752 18.378 1.00064 19.4054 1.33269C20.4329 1.66474 21.3668 2.23621 22.13 3.00001L24.012 4.88001L25.894 3.00001C26.6574 2.23629 27.5914 1.66492 28.6189 1.33302C29.6465 1.00112 30.7382 0.918184 31.8041 1.09105C32.87 1.26392 33.8796 1.68763 34.7496 2.32728C35.6196 2.96692 36.3251 3.80417 36.808 4.77001V4.77001C37.4476 6.04956 37.6685 7.49786 37.4395 8.9099C37.2105 10.3219 36.5432 11.6262 35.532 12.638L24.012 24.652Z" stroke="white" stroke-width="2" stroke-linecap="round" stroke-linejoin="round"/>
<path d="M7 47L2.972 41.966C1.69504 40.3697 0.999553 38.3862 1 36.342V26C1 25.2044 1.31607 24.4413 1.87868 23.8787C2.44129 23.3161 3.20435 23 4 23V23C4.79565 23 5.55871 23.3161 6.12132 23.8787C6.68393 24.4413 7 25.2044 7 26V33.75" stroke="white" stroke-width="2" stroke-linecap="round" stroke-linejoin="round"/>
<path d="M17 46.728V40.728C17.0017 38.9482 16.4747 37.208 15.486 35.728C11.71 31.8 10.532 29.894 8.24805 31.418C7.68006 31.7965 7.26986 32.3693 7.09455 33.0289C6.91925 33.6886 6.9909 34.3895 7.29605 35L10 39.5" stroke="white" stroke-width="2" stroke-linecap="round" stroke-linejoin="round"/>
<path d="M41 47L45.028 41.966C46.305 40.3697 47.0004 38.3862 47 36.342V26C47 25.2044 46.6839 24.4413 46.1213 23.8787C45.5587 23.3161 44.7956 23 44 23C43.2044 23 42.4413 23.3161 41.8787 23.8787C41.3161 24.4413 41 25.2044 41 26V33.75" stroke="white" stroke-width="2" stroke-linecap="round" stroke-linejoin="round"/>
<path d="M31 46.728V40.728C30.9984 38.9482 31.5253 37.208 32.514 35.728C36.29 31.792 37.468 29.89 39.752 31.414C40.32 31.7925 40.7302 32.3653 40.9055 33.0249C41.0808 33.6846 41.0092 34.3855 40.704 34.996L38 39.5" stroke="white" stroke-width="2" stroke-linecap="round" stroke-linejoin="round"/>
</svg>
