<svg width="48" height="48" viewBox="0 0 48 48" fill="none" xmlns="http://www.w3.org/2000/svg">
<path d="M47 47V44.8C47.008 43.3116 46.441 41.8776 45.4174 40.797C44.3938 39.7164 42.9926 39.0726 41.506 39H37V29.5C37 28.837 36.7366 28.201 36.2678 27.7322C35.799 27.2634 35.163 27 34.5 27C33.837 27 33.201 27.2634 32.7322 27.7322C32.2634 28.201 32 28.837 32 29.5V44L28.958 39.72C28.6984 39.2272 28.2536 38.8578 27.7216 38.693C27.1896 38.528 26.6138 38.5814 26.121 38.841C25.6282 39.1006 25.2588 39.5454 25.094 40.0774C24.9292 40.6094 24.9824 41.1852 25.242 41.678L28.042 47" stroke="white" stroke-width="2" stroke-linecap="round" stroke-linejoin="round"/>
<path d="M22.042 47H5C3.93914 47 2.92172 46.5786 2.17158 45.8284C1.42143 45.0782 1 44.0608 1 43V5C1 3.93914 1.42143 2.92172 2.17158 2.17158C2.92172 1.42143 3.93914 1 5 1H27C28.0608 1 29.0782 1.42143 29.8284 2.17158C30.5786 2.92172 31 3.93914 31 5V23.042" stroke="white" stroke-width="2" stroke-linecap="round" stroke-linejoin="round"/>
<path d="M19.042 39H1" stroke="white" stroke-width="2" stroke-linecap="round" stroke-linejoin="round"/>
<path d="M11 5H21" stroke="white" stroke-width="2" stroke-linecap="round" stroke-linejoin="round"/>
<path d="M23 20C23 19.7348 22.8946 19.4804 22.7072 19.2929C22.5196 19.1054 22.2652 19 22 19H19V16C19 15.7348 18.8946 15.4804 18.7071 15.2929C18.5196 15.1054 18.2652 15 18 15H14C13.7348 15 13.4804 15.1054 13.2929 15.2929C13.1054 15.4804 13 15.7348 13 16V19H10C9.73478 19 9.48042 19.1054 9.2929 19.2929C9.10536 19.4804 9 19.7348 9 20V24C9 24.2652 9.10536 24.5196 9.2929 24.7072C9.48042 24.8946 9.73478 25 10 25H13V28C13 28.2652 13.1054 28.5196 13.2929 28.7072C13.4804 28.8946 13.7348 29 14 29H18C18.2652 29 18.5196 28.8946 18.7071 28.7072C18.8946 28.5196 19 28.2652 19 28V25H22C22.2652 25 22.5196 24.8946 22.7072 24.7072C22.8946 24.5196 23 24.2652 23 24V20Z" stroke="white" stroke-width="2" stroke-linecap="round" stroke-linejoin="round"/>
<path d="M16 43C15.7239 43 15.5 42.7762 15.5 42.5C15.5 42.2238 15.7239 42 16 42" stroke="white" stroke-width="2"/>
<path d="M16 43C16.2761 43 16.5 42.7762 16.5 42.5C16.5 42.2238 16.2761 42 16 42" stroke="white" stroke-width="2"/>
</svg>
