<svg width="48" height="48" viewBox="0 0 48 48" fill="none" xmlns="http://www.w3.org/2000/svg">
<path d="M20.3521 21.312L29.9281 16.664C30.3575 16.4533 30.8242 16.3293 31.3015 16.299C31.7789 16.2687 32.2575 16.3328 32.7101 16.4875C33.1627 16.6422 33.5804 16.8845 33.9393 17.2007C34.2983 17.5168 34.5914 17.9006 34.802 18.33L34.774 21.93L37.4381 23.708L37.2661 27.008L40.1501 29.234C40.3607 29.6634 40.4847 30.1301 40.515 30.6075C40.5453 31.0848 40.4813 31.5635 40.3266 32.0161C40.1719 32.4687 39.9295 32.8864 39.6134 33.2453C39.2972 33.6042 38.9135 33.8974 38.4841 34.108L24.8581 40.754L20.6961 46.068" stroke="white" stroke-width="2" stroke-linecap="round" stroke-linejoin="round"/>
<path d="M21.892 27.152C22.3944 26.0055 22.4348 24.7093 22.0048 23.5337C21.5748 22.3581 20.7076 21.3938 19.584 20.842L12.384 17.312L9.48204 19.28L9.91804 22.28L6.70004 24.772L6.66204 28.818L3.84204 30.618L4.15004 33.872L11.658 37.556C12.2463 37.8446 12.8869 38.0111 13.5412 38.0456C14.1955 38.08 14.85 37.9817 15.4654 37.7566C16.0807 37.5314 16.6441 37.184 17.1216 36.7354C17.5992 36.2867 17.981 35.7461 18.244 35.146L21.892 27.152Z" stroke="white" stroke-width="2" stroke-linecap="round" stroke-linejoin="round"/>
<path d="M9.63401 36.554L2.15601 46.064" stroke="white" stroke-width="2" stroke-linecap="round" stroke-linejoin="round"/>
<path d="M23.988 41.86L27.278 46.064" stroke="white" stroke-width="2" stroke-linecap="round" stroke-linejoin="round"/>
<path d="M37.0341 34.812L45.8441 46.064" stroke="white" stroke-width="2" stroke-linecap="round" stroke-linejoin="round"/>
<path d="M26.7581 18.13L18.7061 14.116C18.2379 13.8865 17.6978 13.8521 17.2043 14.0205C16.7108 14.1889 16.3043 14.5462 16.0741 15.014L15.7541 15.666C15.4101 16.3683 15.3591 17.1785 15.6122 17.9185C15.8653 18.6584 16.402 19.2676 17.1041 19.612L18.9521 20.52" stroke="white" stroke-width="2" stroke-linecap="round" stroke-linejoin="round"/>
<path d="M20.424 14.972L24.676 12.926C24.9078 12.8122 25.1599 12.7451 25.4177 12.7287C25.6755 12.7124 25.934 12.747 26.1785 12.8305C26.4229 12.9141 26.6485 13.0451 26.8423 13.2159C27.0361 13.3867 27.1943 13.594 27.308 13.826L27.628 14.478C27.9719 15.1803 28.023 15.9905 27.7698 16.7305C27.5167 17.4704 26.9801 18.0796 26.278 18.424L24.43 19.33" stroke="white" stroke-width="2" stroke-linecap="round" stroke-linejoin="round"/>
<path d="M23.988 1.936V5.936" stroke="white" stroke-width="2" stroke-linecap="round" stroke-linejoin="round"/>
<path d="M43.08 9.844L40.25 12.672" stroke="white" stroke-width="2" stroke-linecap="round" stroke-linejoin="round"/>
<path d="M4.896 9.844L7.724 12.672" stroke="white" stroke-width="2" stroke-linecap="round" stroke-linejoin="round"/>
</svg>
