<svg width="48" height="48" viewBox="0 0 48 48" fill="none" xmlns="http://www.w3.org/2000/svg">
<path d="M33.91 29C33.094 27.74 30.388 26.824 27 25.57C26.044 25.214 26.2 22.718 26.624 22.252C27.2984 21.5216 27.8106 20.6568 28.127 19.7144C28.4434 18.772 28.5568 17.7734 28.46 16.784C28.501 16.171 28.4156 15.5562 28.2092 14.9776C28.0028 14.3989 27.6798 13.8689 27.2602 13.4202C26.8406 12.9716 26.3332 12.6139 25.7696 12.3693C25.206 12.1248 24.5984 11.9986 23.984 11.9986C23.3696 11.9986 22.7618 12.1248 22.1984 12.3693C21.6348 12.6139 21.1274 12.9716 20.7078 13.4202C20.2882 13.8689 19.9651 14.3989 19.7587 14.9776C19.5523 15.5562 19.467 16.171 19.508 16.784C19.4111 17.7734 19.5246 18.772 19.841 19.7144C20.1574 20.6568 20.6696 21.5216 21.344 22.252C21.768 22.718 21.924 25.214 20.968 25.57C17.58 26.824 14.874 27.74 14.058 29" stroke="white" stroke-width="2" stroke-linecap="round" stroke-linejoin="round"/>
<path d="M24 9C27.3138 9 30 7.20914 30 5C30 2.79086 27.3138 1 24 1C20.6862 1 18 2.79086 18 5C18 7.20914 20.6862 9 24 9Z" stroke="white" stroke-width="2" stroke-linecap="round" stroke-linejoin="round"/>
<path d="M18 47C19.8116 44.7124 20.8608 41.9146 21 39" stroke="white" stroke-width="2" stroke-linecap="round" stroke-linejoin="round"/>
<path d="M30 47C28.1884 44.7124 27.1392 41.9146 27 39" stroke="white" stroke-width="2" stroke-linecap="round" stroke-linejoin="round"/>
<path d="M14.9979 47H32.9979" stroke="white" stroke-width="2" stroke-linecap="round" stroke-linejoin="round"/>
<path d="M1 33H47" stroke="white" stroke-width="2" stroke-linecap="round" stroke-linejoin="round"/>
<path d="M14 5H3C2.46956 5 1.96086 5.21072 1.58579 5.58578C1.21071 5.96086 1 6.46956 1 7V37C1 37.5304 1.21071 38.0392 1.58579 38.4142C1.96086 38.7892 2.46956 39 3 39H45C45.5304 39 46.0392 38.7892 46.4142 38.4142C46.7892 38.0392 47 37.5304 47 37V7C47 6.46956 46.7892 5.96086 46.4142 5.58578C46.0392 5.21072 45.5304 5 45 5H34" stroke="white" stroke-width="2" stroke-linecap="round" stroke-linejoin="round"/>
<path d="M24 5.5C23.7238 5.5 23.5 5.27614 23.5 5C23.5 4.72386 23.7238 4.5 24 4.5" stroke="white" stroke-width="2"/>
<path d="M24 5.5C24.2762 5.5 24.5 5.27614 24.5 5C24.5 4.72386 24.2762 4.5 24 4.5" stroke="white" stroke-width="2"/>
</svg>
