<svg width="48" height="48" viewBox="0 0 48 48" fill="none" xmlns="http://www.w3.org/2000/svg">
<path d="M1 16.744H5C5.53043 16.744 6.03914 16.9547 6.41421 17.3298C6.78929 17.7049 7 18.2136 7 18.744V42.744C7 43.2745 6.78929 43.7832 6.41421 44.1582C6.03914 44.5333 5.53043 44.744 5 44.744H1" stroke="white" stroke-width="2" stroke-linecap="round" stroke-linejoin="round"/>
<path d="M7 38.744C21.678 46.196 20.962 45.214 33.53 45.214C38.794 45.214 41.446 41.784 42.994 36.758V36.726L46.808 23.926V23.902C46.9882 23.3061 47.0269 22.6763 46.9209 22.0628C46.8149 21.4493 46.5671 20.869 46.1973 20.3682C45.8275 19.8673 45.346 19.4597 44.7909 19.1777C44.2358 18.8957 43.6226 18.7472 43 18.744H33.2C32.5878 18.744 31.9837 18.6035 31.4343 18.3333C30.8849 18.0631 30.4049 17.6704 30.0312 17.1854C29.6576 16.7004 29.4002 16.1362 29.279 15.536C29.1577 14.9359 29.1759 14.316 29.332 13.724L31.096 7.036C31.3005 6.25832 31.2249 5.43349 30.8825 4.70592C30.5401 3.97835 29.9527 3.3944 29.2231 3.05631C28.4935 2.71822 27.6682 2.64753 26.8918 2.85662C26.1153 3.06571 25.4372 3.54126 24.976 4.2L15.2 18.05C14.8307 18.5734 14.3411 19.0005 13.7724 19.2953C13.2037 19.59 12.5726 19.7439 11.932 19.744H7" stroke="white" stroke-width="2" stroke-linecap="round" stroke-linejoin="round"/>
</svg>
