<svg width="48" height="48" viewBox="0 0 48 48" fill="none" xmlns="http://www.w3.org/2000/svg">
<path d="M1 12.666C1 13.06 1.0776 13.4501 1.22836 13.8141C1.37913 14.178 1.6001 14.5088 1.87868 14.7873C2.15726 15.0659 2.48797 15.2869 2.85195 15.4377C3.21593 15.5884 3.60603 15.666 4 15.666C4.39397 15.666 4.78407 15.5884 5.14805 15.4377C5.51203 15.2869 5.84274 15.0659 6.12132 14.7873C6.3999 14.5088 6.62087 14.178 6.77164 13.8141C6.9224 13.4501 7 13.06 7 12.666C7 12.272 6.9224 11.8819 6.77164 11.518C6.62087 11.154 6.3999 10.8233 6.12132 10.5447C5.84274 10.2661 5.51203 10.0451 5.14805 9.89438C4.78407 9.74361 4.39397 9.66602 4 9.66602C3.60603 9.66602 3.21593 9.74361 2.85195 9.89438C2.48797 10.0451 2.15726 10.2661 1.87868 10.5447C1.6001 10.8233 1.37913 11.154 1.22836 11.518C1.0776 11.8819 1 12.272 1 12.666V12.666Z" stroke="white" stroke-width="2" stroke-linecap="round" stroke-linejoin="round"/>
<path d="M41 12.834C41 13.6296 41.3161 14.3927 41.8787 14.9553C42.4413 15.5179 43.2044 15.834 44 15.834C44.7956 15.834 45.5587 15.5179 46.1213 14.9553C46.6839 14.3927 47 13.6296 47 12.834C47 12.0383 46.6839 11.2753 46.1213 10.7127C45.5587 10.1501 44.7956 9.83398 44 9.83398C43.2044 9.83398 42.4413 10.1501 41.8787 10.7127C41.3161 11.2753 41 12.0383 41 12.834Z" stroke="white" stroke-width="2" stroke-linecap="round" stroke-linejoin="round"/>
<path d="M8 44H40" stroke="white" stroke-width="2" stroke-linecap="round" stroke-linejoin="round"/>
<path d="M8.00001 38L3.90601 15.656C3.90601 15.656 6.00001 26 14 26C22 26 24 12 24 12C24 12 26 26 34 26C42 26 44.094 15.814 44.094 15.814L40 38H8.00001Z" stroke="white" stroke-width="2" stroke-linecap="round" stroke-linejoin="round"/>
<path d="M20 8C20 9.06087 20.4214 10.0783 21.1716 10.8284C21.9217 11.5786 22.9391 12 24 12C25.0609 12 26.0783 11.5786 26.8284 10.8284C27.5786 10.0783 28 9.06087 28 8C28 6.93913 27.5786 5.92172 26.8284 5.17157C26.0783 4.42143 25.0609 4 24 4C22.9391 4 21.9217 4.42143 21.1716 5.17157C20.4214 5.92172 20 6.93913 20 8V8Z" stroke="white" stroke-width="2" stroke-linecap="round" stroke-linejoin="round"/>
</svg>
