<svg width="48" height="48" viewBox="0 0 48 48" fill="none" xmlns="http://www.w3.org/2000/svg">
<path d="M2.23584 4.23599C2.23602 3.89521 2.32328 3.56013 2.48933 3.26254C2.65538 2.96495 2.89472 2.71472 3.18463 2.5356C3.47454 2.35649 3.80541 2.25442 4.14585 2.23909C4.48629 2.22375 4.825 2.29566 5.12984 2.44799L44.6578 22.212C44.9896 22.3783 45.2686 22.6336 45.4635 22.9493C45.6585 23.2651 45.7617 23.6289 45.7617 24C45.7617 24.3711 45.6585 24.7349 45.4635 25.0506C45.2686 25.3664 44.9896 25.6217 44.6578 25.788L5.12984 45.552C4.825 45.7043 4.48629 45.7762 4.14585 45.7609C3.80541 45.7456 3.47454 45.6435 3.18463 45.4644C2.89472 45.2853 2.65538 45.035 2.48933 44.7374C2.32328 44.4399 2.23602 44.1048 2.23584 43.764V4.23599Z" stroke="white" stroke-width="2" stroke-linecap="round" stroke-linejoin="round"/>
</svg>
