<svg version="1.0" xmlns="http://www.w3.org/2000/svg" width="2560" height="2560" viewBox="0 0 1920 1920"><path d="M1277.8 104.5c-.2.2-5 .6-10.8.9-5.8.4-11.6.8-13 1-1.4.3-4.7.7-7.5 1-2.7.4-6.1.9-7.5 1.1-1.4.3-4.1.7-6 1-28.3 3.8-66 14.2-96.9 26.6-15.5 6.3-43.7 20.1-55.1 27-4.7 2.8-10.4 6.2-12.7 7.5-10.7 6.1-39.5 27.3-52.8 38.8-17 14.7-34.5 32.3-48 48.1-3.3 3.8-6.2 7.2-6.5 7.5-2 1.8-15.7 20.5-23.5 31.9-23 33.8-43.8 75.8-56.4 114-2.3 6.9-4.1 12.7-4.1 13.1 0 .7 104.7.7 105.2 0 .3-.3 1.9-4.1 3.8-8.5 7.4-17.6 21.5-43.3 32.9-60 34.1-50 77.4-87.7 132.4-115 27.9-13.9 68.3-27.1 92.1-30.1 2.2-.3 4.2-.7 4.6-.9.3-.2 3.7-.6 7.5-1 3.9-.4 7.9-.9 9-1.1 11.3-2.3 58.7-2.2 75 .1 24.5 3.4 35.4 5.6 54 11.1 31.9 9.2 57.3 20.5 85.3 37.8 8.6 5.3 27.7 18.7 33.1 23.1 24.3 20 44.4 40.5 60.7 62 39.7 52.3 64.3 115.5 71.1 183 1 10.1 1 54.3.1 65-1.1 11.8-1.6 15.1-4.3 31.3-.5 2.9-2.2 11-4.5 21.2-7.3 32.2-22.3 67.9-44.2 105.5-1 1.6-3.2 5.7-5 8.9-1.8 3.2-3.7 6.6-4.3 7.5-.5.9-2.8 4.8-4.9 8.6-2.1 3.9-7.6 13.5-12.1 21.5-4.6 8-9.5 16.7-11 19.5-1.6 2.7-3.7 6.6-4.8 8.5-1.1 1.9-4.9 8.7-8.5 15-3.5 6.3-6.8 11.9-7.2 12.5-.4.5-2.3 3.9-4.2 7.5-2 3.6-10.2 18.2-18.3 32.5-8.1 14.3-15.7 27.8-16.9 30-1.1 2.2-2.4 4.1-2.8 4.3-.5.2-.8.7-.8 1.1 0 .4-6.3 12-14.1 25.7-7.7 13.7-15.4 27.4-17.1 30.4-1.7 3-4.7 8.4-6.8 12-2 3.6-4.9 8.5-6.2 11-1.4 2.5-11.2 19.8-21.8 38.5-10.6 18.7-20.2 35.6-21.2 37.5-4.1 7.2-29.5 52.2-39.1 69-5.5 9.6-11.5 20.4-13.5 24-1.9 3.6-4.5 8.1-5.7 10-1.2 1.9-2.4 4-2.6 4.5-.2.6-4.4 8.1-9.4 16.8l-9 15.7-7.5-.7c-14.3-1.3-29.1-.7-42.3 1.7-6.9 1.3-20 5.1-21.2 6.2-.5.4-1.5.8-2.2.8-1.7 0-13.3 5.5-20.8 9.9-13.3 7.8-29.4 21.8-38.5 33.6-1.7 2.2-3.6 4.7-4.3 5.5-8.2 10.1-18 31.4-22.6 49-3.2 12.3-4.2 20.2-4.5 34.5-.3 9.9 1.2 25.6 2.9 32.5.4 1.4.9 3.6 1.1 4.9 1.1 5.5 6.9 21.2 11.1 29.6 15.2 30.7 39.7 53.6 72.6 67.7 9.4 4.1 24.7 8.4 33.7 9.6 7 .9 23.2.8 33.4-.1 54.4-5.2 102.3-44.3 119.7-97.9 2.8-8.6 3.5-11.4 4.5-17.3.3-1.7.7-3.6 1-4.4 1.6-4.9 2.3-26.9 1.1-39.1-2.4-24-12.5-50.6-26-68.6l-5.4-7.2 10.8-19.1c5.9-10.5 12.1-21.5 13.7-24.4 1.6-2.8 6.4-11.2 10.6-18.6 4.2-7.3 7.6-13.5 7.6-13.7 0-.2 1.7-3.2 3.8-6.6 2.1-3.5 5.2-8.8 6.9-11.8 1.6-3 6.1-11.1 10-18 3.9-6.9 10.8-19 15.3-27s9.6-17 11.3-20c1.6-3 3.3-6 3.7-6.5.4-.6 2.2-3.7 4-7 1.8-3.3 11.9-21.1 22.3-39.5 10.5-18.4 20.1-35.5 21.5-38 1.4-2.5 7.2-12.8 13-23s11.3-19.9 12.2-21.5c.9-1.7 18.3-32.3 38.5-68 37-65.4 39.9-70.5 49.2-87 2.8-5 9.7-17.1 15.3-27 22.6-39.9 38.7-77.4 48-111.9 1.7-6.6 3.4-12.6 3.6-13.5 1.4-4.9 7.5-35.4 8-40.1.3-3 .8-5.7.9-6 .2-.3.6-3.7 1-7.5.4-3.9.9-7.8 1.1-8.8 2.7-14.4 2.6-75-.1-97.5-.3-2.3-.7-5.9-.9-8-.6-4.7-3.5-24-4-26.7-.2-1.1-.9-4-1.4-6.5-.6-2.5-1.3-6.1-1.6-8-2.6-16.6-18.1-65-27.2-84.8-1.3-2.9-2.4-5.4-2.4-5.6 0-.8-11-23.2-15.4-31.4-53.4-99.2-143-175.1-248.1-210.1-8.2-2.8-17.7-5.7-21-6.6-19.3-5.2-29.4-7.5-41-9.4-9-1.6-11.8-2-14.5-2.6-1.4-.3-5.4-.7-9-1-3.6-.3-7.8-.7-9.5-1-8.9-1.4-17.4-1.8-41.2-2-14.4-.1-26.4-.1-26.5 0z"/><path d="M1286.5 414c-2.7.4-7 1-9.5 1.4-5.8.8-20 4.8-26.7 7.5-35.9 14.4-62.7 40.5-78.1 76.1l-3.3 7.5-282.7.1c-155.5 0-287.9.4-294.2.8-13.9.9-17 1.2-23.5 2-2.7.3-7 .9-9.5 1.2-2.5.3-5.6.8-7 1-1.4.2-4.3.6-6.5.9-5.8.9-34.9 7.3-41.4 9.1-82.2 23-151.3 65.2-208.6 127.4-34.7 37.7-65.3 85.5-84.5 132-2.8 6.9-5.5 13.4-6 14.5-4.9 10.5-20.1 64.8-22.4 79.5-.3 1.9-.8 4.6-1.1 6-.3 1.4-.8 4.5-1.1 7-.3 2.5-.7 5.6-1 7-.2 1.4-.6 5-1 8-.3 3-.8 6.3-.9 7.2-1.9 10.1-2.8 67.1-1.3 84.8 5.1 59.6 19.6 112.9 45.2 165.5 8.2 16.8 25.1 46.7 26.7 47.3.5.2.9.8.9 1.2 0 1.5 24.2 35.5 27 38 .3.3 2.5 3 5 6s4.7 5.7 5 6c.3.3 2.5 2.7 4.9 5.5 18.3 20.8 46.3 46.6 66.2 61 2.9 2.2 5.6 4.2 5.9 4.5.3.3 5.2 3.7 11 7.6 43.7 29.4 89.1 49.5 140.5 62.3 10.9 2.7 26.6 6 32.2 6.6 2 .3 8.1 1.3 12.3 2 .8.1 4.2.6 7.5.9 3.3.4 7.4.9 9 1.1 19.2 2.4 75.4 2.5 88 .1 1.1-.2 5.2-.7 9-1 3.9-.4 7.7-.9 8.5-1.1.8-.2 3.3-.6 5.5-1 6.7-1 9.6-1.5 20.5-3.7 5.8-1.1 10.7-2.2 10.9-2.4.2-.2-1-2.7-2.7-5.6-1.7-2.9-3.9-6.9-5-8.8-1.1-1.9-5.2-9.1-9.2-16-4-6.9-8.4-14.5-9.8-17-1.3-2.5-2.8-5-3.2-5.5-.4-.6-2.1-3.5-3.7-6.5-1.7-3-6.7-11.9-11.2-19.7l-8.1-14.1-5.8.4c-3.1.2-7 .7-8.7 1-4.9 1-53.4 1.3-61 .4-3.8-.4-9.5-1.1-12.5-1.5-51.3-5.9-105.3-26.3-148.3-55.9-4.9-3.4-9.9-6.8-11.1-7.6-12.1-8.2-42.1-36.1-56.5-52.5-16.5-18.8-34.6-45.7-46.7-69-17.1-33.2-26.9-62-34.9-102.5-.1-.8-.8-5.6-1.4-10.5-.7-5-1.4-10.4-1.6-12-1.8-13-2.4-44.9-1.2-63.5 1.4-21.3 5.6-47 11.3-68 2.4-9.1 9.6-31.3 11.4-35.5.5-1.1 2.6-6.1 4.6-11 5.5-13 17.4-36.5 22.9-45 21.1-32.8 30.4-44.5 53.9-68 16.9-16.8 30.8-28.4 50.1-41.4 13.1-8.8 35.7-22.1 37.8-22.1.6 0 1.8-.6 2.6-1.3 1.9-1.6 19.9-9.5 28.6-12.6 3.3-1.2 6.9-2.6 8-3.1 9.7-4.3 46.6-13.4 63-15.5 2.8-.4 5.9-.8 7-1 1.1-.1 5.4-.6 9.5-.9 4.1-.4 10.2-.9 13.5-1.2 3.3-.3 132.6-.5 287.4-.4 207 0 281.7.3 282.7 1.1.8.6 1.4 1.7 1.4 2.4 0 2.4 8.4 18.3 14.8 27.9 4.1 6.2 10.6 14 17.1 20.6 18.4 18.4 38.3 30 62.6 36.5 13.1 3.5 18.1 4 37 3.9 14.6 0 18.6-.4 28.1-2.6 43.4-10.2 77.9-37.9 96.9-77.9 4.7-10 9.8-25 11-32.2.4-2.3.9-5.1 1.2-6.2 1.7-8.2 2.3-30.2 1-41-.6-5.7-.9-7.4-2.2-13.5-.3-1.4-.7-3.5-1-4.8-1.9-10.3-11.7-32.6-19.3-44.2-11.2-17.1-23.9-29.9-41.2-41.5-17.5-11.7-33.9-18-57.5-22.1-5.7-.9-27.1-1.2-33-.4z"/><path d="M604 816.6c-21.8 3.6-33.3 7-47.4 14.1-38.6 19.4-67.1 56.3-76.2 98.8-3.7 17-3.8 45.4-.3 60.2 1.7 7.2 4.9 18.5 5.8 20.8 7.9 18.4 10.3 22.7 19.4 35.3 20.9 28.7 50.3 47.4 86.7 55.3 10.6 2.3 27.9 3 42.9 1.9l6.3-.5 6 10.5c3.3 5.8 10.9 19 16.8 29.5 12.2 21.7 12.1 21.4 26.7 47.5 6.1 10.7 15.7 27.8 21.5 38 5.8 10.2 12.8 22.5 15.5 27.5 5.8 10.4 7.2 12.9 14.2 24.9 2.8 4.9 5.1 9 5.1 9.2 0 .1 3.2 5.7 7 12.4 3.9 6.7 7 12.3 7 12.5 0 .2 2.2 4.1 4.8 8.7 2.7 4.5 8.4 14.6 12.7 22.3 4.4 7.7 13 22.9 19.2 33.9 6.2 10.9 11.3 20 11.3 20.2 0 .3 1 2.1 2.3 4.2 1.3 2 3.7 6.2 5.4 9.2 1.6 3 10.1 18.1 18.8 33.5 19.1 33.8 17.3 30.6 27.7 49 4.7 8.2 9.6 17 11 19.5 1.4 2.5 8.3 14.6 15.3 27s14.3 25.4 16.3 29c2 3.6 4.9 8.7 6.5 11.5 1.6 2.7 4.3 7.5 5.9 10.5 9 16.4 27.9 43.8 43.3 62.5 43.9 53.4 102.9 97.6 167 124.9 12.1 5.2 38.6 15 43.5 16.1.8.1 4.2 1.1 7.5 2.1s6.5 1.9 7 2c.6.1 3.9 1 7.5 1.9 3.6.9 7.6 1.9 8.9 2.1 1.2.3 5.1 1.1 8.5 1.9 8.4 2 33.2 5.9 43.6 7 15.8 1.5 23 1.9 44 1.9 21.3.1 39.5-.6 47.5-1.9 1.7-.2 5-.6 7.5-.9 33.1-3.6 75.6-14.6 110-28.6 13.5-5.5 40.1-18.3 51-24.7 10.5-6.1 29.6-18 33-20.5 1.4-1.1 6.6-4.9 11.5-8.5 42.4-31 81.4-72.4 110.1-116.8 4.3-6.7 3.8-5.8 12.8-21.5 25.4-43.8 46.4-102.3 54.2-150.9.3-1.8.7-4.2.9-5.1.2-1 .6-4 1-6.7.4-2.6.8-5.9 1-7.3.4-2.7 1.4-11.2 2-17.5 3.2-33.3 1.7-81.6-3.5-112.5-.5-3-1.2-7.1-1.5-9-.3-1.9-.8-4.2-1-5-.2-.8-.6-3.1-.9-5-2.3-14.5-11.1-46.4-18.3-66-14.4-39.5-33.4-76.1-56.4-108.6-7.4-10.4-20.4-27.1-27-34.6-2.8-3.2-5.9-6.8-6.8-8l-1.8-2.1-2.1 3.5c-1.2 2-2.2 3.8-2.2 4.2 0 .3-1 2.3-2.3 4.4-1.3 2-4.1 6.8-6.2 10.7-2.1 3.8-9.9 18-17.5 31.5-7.5 13.5-13.9 25.2-14.3 26-.4.8-2.2 4.2-4.1 7.5l-3.4 5.9 7.3 10.6c12.5 18 19.4 29.9 28.6 48.5 13.1 26.9 22.3 53.3 28.3 81.5 2.8 13.2 3.5 17.4 5 29.5.4 3.3 1 7.1 1.2 8.5.7 4.1 1.7 26.8 1.7 37.5.1 13.2-1.2 33-2.7 43.5-.4 2.5-.9 6.3-1.2 8.5-.3 2.2-1.4 8.5-2.5 14s-2.3 11.1-2.5 12.5c-2.3 11.7-12 43.3-16.4 53.5-.5 1.1-2.1 4.9-3.6 8.5-15.3 37.6-43.2 78.9-73.9 109.5-34.4 34.2-67.7 56.4-116 77.1-19.8 8.5-58.5 18.6-80 20.9-2.7.3-6.1.7-7.5 1-5.6 1-21.4 1.8-36.5 1.9-14.8 0-37.1-1.1-38.4-1.8-.3-.2-3.7-.7-7.6-1.1-3.8-.3-10-1.3-13.7-2.1-3.7-.7-8.2-1.6-10-1.9-5.5-1-21.7-5.2-31.8-8.4-58.4-18-110.9-51.5-152.5-97.3-20.5-22.5-35.3-44.2-57.7-84.8-2.8-5-15.3-27.2-18.8-33.5-1.3-2.2-3.4-6-4.8-8.5-1.3-2.5-2.8-5-3.2-5.5-.4-.6-2.2-3.7-4-7-1.8-3.3-9.9-17.7-18-32s-16.2-28.7-18-32c-1.8-3.3-9.7-17.3-17.5-31-7.8-13.8-15.3-27-16.7-29.5-1.4-2.5-8.4-14.9-15.5-27.5-7.1-12.7-14.4-25.5-16-28.5-1.7-3-4.8-8.4-6.8-12-4.9-8.5-6.5-11.4-21.5-38-7-12.4-22.7-40.3-35-62-12.3-21.7-23.6-42-25.3-45-1.6-3-3.3-6-3.7-6.5-.4-.6-2-3.3-3.5-6-5.7-10.4-25.8-46-26.5-47-.4-.6-2.3-4-4.3-7.7l-3.7-6.7 6.3-9.3c5.2-7.8 12.4-21.2 15.8-29.3 1.6-3.9 6-18.8 6.5-22.4.3-2 .8-3.9 1-4.3 1-1.6 1.9-16.5 1.8-29.8-.1-10.7-.7-17.1-2.3-24.5-2.4-11.4-5-20.6-6.3-22-.4-.5-.8-1.5-.8-2.3 0-2.7-10.8-23.1-16.6-31.4-12.2-17.4-33.4-35.7-52.7-45.4-10.1-5.2-26.7-10.6-36.6-12-1.9-.2-3.8-.7-4.3-1-1.1-.7-31.2-1.4-34.8-.8z"/></svg>