<svg width="147" height="72" viewBox="0 0 147 72" fill="none" xmlns="http://www.w3.org/2000/svg">
<path d="M38.9044 48.4815C38.045 48.4822 37.2013 48.2504 36.4623 47.8106C35.7116 47.3752 35.0901 46.7474 34.6614 45.9917C34.0141 44.8431 33.8447 43.4851 34.1899 42.2121C34.3499 41.5837 34.6327 40.9932 35.022 40.475C35.4112 39.9568 35.8992 39.5211 36.4576 39.1932C37.4292 38.6209 38.5716 38.4116 39.6823 38.6026L49.2009 21.7552C50.7888 18.9546 51.2155 15.641 50.389 12.5283C49.9957 10.9934 49.3045 9.55125 48.3548 8.28421C47.4051 7.01716 46.2155 5.95007 44.8541 5.14392C43.5103 4.34041 42.0182 3.8174 40.4675 3.60631C38.9169 3.39522 37.3397 3.50041 35.8306 3.91555C34.3103 4.33017 32.8881 5.04535 31.6477 6.01898C30.4073 6.99262 29.3738 8.20505 28.608 9.58492C28.364 10.0168 28.1467 10.4633 27.9574 10.922L27.8914 11.0779H24.2471L24.3555 10.7424C24.6868 9.72428 25.118 8.74152 25.6426 7.80852C26.6254 6.03923 27.9511 4.48452 29.5417 3.23567C31.1323 1.98681 32.9559 1.06897 34.9053 0.536014C36.8548 0.0030619 38.8908 -0.134259 40.894 0.132112C42.8971 0.398484 44.8269 1.06318 46.5702 2.08718C53.8824 6.41008 56.3905 16.0055 52.1663 23.4843L42.643 40.3271C42.8212 40.5335 42.979 40.7565 43.1145 40.9932C43.7586 42.1357 43.9322 43.485 43.5985 44.7539C43.2648 46.0228 42.45 47.1111 41.3277 47.787C40.5926 48.2231 39.754 48.4532 38.8997 48.4532" fill="#3CAFAB"/>
<path d="M38.9042 59.1919C36.193 59.1847 33.5326 58.4544 31.1961 57.0761C28.8597 55.6979 26.9314 53.7213 25.6093 51.3493L16.1049 34.4971C15.8431 34.5418 15.5783 34.567 15.3128 34.5727C14.0095 34.5565 12.7656 34.0233 11.8537 33.09C10.9418 32.1567 10.4361 30.8992 10.4475 29.5931C10.4452 28.7246 10.6688 27.8705 11.0962 27.1149C11.5236 26.3594 12.14 25.7285 12.8848 25.2844C13.8108 24.7368 14.8937 24.5173 15.9592 24.6613C17.0247 24.8053 18.0109 25.3043 18.7591 26.0781C19.6134 26.9583 20.1163 28.1216 20.1728 29.3482C20.2293 30.5748 19.8354 31.7796 19.0656 32.7348L28.5747 49.6012C29.3429 50.9793 30.3771 52.1903 31.6171 53.1637C32.8572 54.1371 34.2782 54.8533 35.7973 55.2706C37.3052 55.6883 38.8817 55.7964 40.4323 55.5886C41.9828 55.3808 43.4756 54.8612 44.8209 54.0611C46.1835 53.257 47.3742 52.1912 48.3249 50.9248C49.2755 49.6584 49.9672 48.2164 50.3604 46.6815C51.1885 43.5714 50.7653 40.2599 49.1818 37.4593C48.9372 37.0274 48.6664 36.6108 48.3709 36.2121L48.2766 36.0798L50.0775 32.8388L50.3038 33.1034C51.0054 33.9074 51.6231 34.7812 52.1472 35.7113C56.3667 43.1901 53.8444 52.7855 46.5322 57.099C44.222 58.4676 41.5879 59.1903 38.9042 59.1919Z" fill="#F1AE4B"/>
<path d="M15.332 45.2406C13.3091 45.2438 11.3063 44.8383 9.44321 44.0485C7.58016 43.2587 5.89508 42.1007 4.48861 40.6436C1.61048 37.6807 0 33.7091 0 29.5742C0 25.4393 1.61048 21.4677 4.48861 18.5048C5.89604 17.0496 7.58152 15.8935 9.44449 15.1054C11.3075 14.3172 13.3098 13.9131 15.332 13.9173H34.355C34.4459 13.6612 34.5579 13.4131 34.6897 13.1756C35.0044 12.6123 35.4278 12.1176 35.9354 11.7201C36.4429 11.3227 37.0243 11.0305 37.6457 10.8606C38.263 10.6909 38.9081 10.6477 39.5424 10.7338C40.1767 10.8198 40.7871 11.0333 41.3371 11.3614C42.4597 12.0372 43.2741 13.1261 43.6062 14.3956C43.9383 15.6651 43.7618 17.0143 43.1145 18.1551C42.8007 18.7196 42.3776 19.2155 41.87 19.6138C41.3624 20.0122 40.7805 20.3049 40.1585 20.4749C39.5422 20.6443 38.8982 20.6878 38.2648 20.6025C37.6314 20.5173 37.0216 20.3052 36.4718 19.9788C35.4971 19.3948 34.7529 18.4922 34.3644 17.4229L15.332 17.4181C8.77881 17.4181 3.44199 22.8702 3.43728 29.5742C3.42634 32.7873 4.67988 35.8751 6.92601 38.168C8.01576 39.2988 9.32179 40.198 10.7661 40.8116C12.2103 41.4253 13.7632 41.741 15.332 41.7397C15.8143 41.7376 16.2961 41.7061 16.7746 41.6452H16.9349L18.7783 44.8579L18.4435 44.9287C17.419 45.1469 16.3746 45.2577 15.3272 45.2595" fill="#771B61"/>
<path d="M67.1914 34.3885H68.4879V20.9946H67.1914V34.3885ZM77.7095 24.7789C77.1483 24.4139 76.4927 24.2217 75.8237 24.2261C74.4093 24.2261 73.1835 24.9064 72.1935 26.2576V24.4812H70.9394V34.4026H72.1935V30.7601C72.1617 29.8586 72.2217 28.9563 72.3726 28.0671C72.5546 27.3286 72.9656 26.6669 73.5466 26.1773C74.1041 25.6863 74.8221 25.4173 75.5644 25.4214C76.8813 25.4214 77.6922 26.0797 77.997 27.3962C78.117 28.1506 78.1643 28.9147 78.1385 29.6782V34.4026H79.3878V29.2907C79.4376 28.2774 79.3001 27.2635 78.9824 26.3002C78.7297 25.6749 78.29 25.1435 77.7236 24.7789H77.7095ZM83.1076 20.678C82.7436 20.8956 82.4808 21.249 82.3768 21.6607C82.2849 22.0794 82.2453 22.5079 82.259 22.9363V24.4812H80.986V25.5868H82.2778V34.3885H83.5366V25.5868H85.578V24.4812H83.5554V23.1489C83.5386 22.7997 83.5592 22.4497 83.6167 22.1048C83.7252 21.7788 84.0269 21.6324 84.5266 21.6324C84.9341 21.6541 85.3331 21.7569 85.7005 21.9347V20.6591C85.2296 20.5048 84.739 20.4189 84.2438 20.404C83.8515 20.3884 83.4628 20.4833 83.1217 20.678H83.1076ZM95.4925 26.149C95.0379 25.5352 94.4423 25.0404 93.7562 24.7065C93.07 24.3725 92.3137 24.2094 91.5512 24.2308C90.8072 24.2102 90.0694 24.3715 89.4016 24.7008C88.7338 25.0301 88.156 25.5174 87.7183 26.1206C86.972 27.0794 86.5731 28.2639 86.5869 29.4797C86.5637 30.1605 86.6769 30.839 86.9199 31.4752C87.1628 32.1114 87.5305 32.6923 88.0012 33.1837C88.4714 33.6633 89.0363 34.0391 89.6598 34.2873C90.2833 34.5354 90.9516 34.6503 91.6219 34.6247C92.6022 34.6493 93.5672 34.3789 94.3925 33.8483C95.2178 33.3177 95.8653 32.5514 96.2516 31.6483L95.205 31.0813C94.9223 31.6031 94.5649 32.0806 94.1442 32.4987C93.4211 33.1344 92.4845 33.472 91.5229 33.4436C91.0255 33.4619 90.5301 33.3692 90.0728 33.1723C89.6154 32.9754 89.2073 32.6792 88.8781 32.305C88.2119 31.5381 87.8496 30.5531 87.8598 29.5364H96.558C96.5935 28.3215 96.2235 27.1294 95.5067 26.149H95.4925ZM87.9871 28.4262C88.1655 27.6542 88.5577 26.9484 89.1185 26.3899C89.781 25.7689 90.6584 25.4302 91.5654 25.445C92.1344 25.4433 92.6966 25.5692 93.2107 25.8135C93.7211 26.0618 94.1667 26.426 94.512 26.8771C94.8574 27.3281 95.093 27.8537 95.2003 28.412L87.9871 28.4262ZM103.436 25.4403C104.117 25.417 104.792 25.5627 105.402 25.8644C106.013 26.1661 106.539 26.6144 106.935 27.1695L107.92 26.5411C107.648 26.0675 107.288 25.6506 106.859 25.3127C105.892 24.5804 104.705 24.1989 103.493 24.2308C102.526 24.2176 101.572 24.4569 100.726 24.9253C99.9138 25.3721 99.2402 26.034 98.7786 26.8387C98.3091 27.6527 98.065 28.5774 98.0714 29.5175C98.056 30.2104 98.1895 30.8985 98.4628 31.5351C98.7361 32.1718 99.1429 32.7421 99.6555 33.2073C100.673 34.1513 102.018 34.6599 103.403 34.6247C105.45 34.6247 106.96 33.8782 107.934 32.3853L106.949 31.7191C106.311 32.5506 105.399 33.1281 104.376 33.3487C103.353 33.5693 102.285 33.4188 101.362 32.9239C100.744 32.5762 100.233 32.0646 99.8865 31.4451C99.5315 30.8323 99.3445 30.1363 99.3443 29.4278C99.3287 28.8889 99.4284 28.353 99.6366 27.8559C99.8447 27.3589 100.157 26.9122 100.551 26.5458C101.336 25.8107 102.377 25.4137 103.451 25.4403H103.436ZM112.3 20.8056H111.036V24.4812H109.334V25.582H111.036V34.3885H112.3V25.582H114.275V24.4812H112.3V20.8056ZM116.222 20.404C116.087 20.4022 115.953 20.4285 115.829 20.4814C115.705 20.5343 115.593 20.6125 115.501 20.7111C115.405 20.8088 115.329 20.9247 115.278 21.0521C115.227 21.1794 115.202 21.3156 115.204 21.4528C115.201 21.5898 115.227 21.7259 115.278 21.8527C115.33 21.9795 115.408 22.0942 115.506 22.1899C115.598 22.2876 115.709 22.3654 115.832 22.4182C115.955 22.471 116.088 22.4978 116.222 22.497C116.358 22.4996 116.493 22.4741 116.619 22.422C116.745 22.37 116.858 22.2926 116.953 22.1946C117.05 22.0973 117.126 21.9815 117.177 21.8541C117.228 21.7266 117.253 21.5901 117.25 21.4528C117.252 21.3156 117.227 21.1794 117.176 21.0521C117.125 20.9247 117.049 20.8088 116.953 20.7111C116.859 20.6125 116.745 20.5343 116.619 20.4815C116.494 20.4287 116.359 20.4023 116.222 20.404ZM115.605 34.3885H116.868V24.4671H115.605V34.3885ZM123.648 24.2308C122.944 24.2157 122.245 24.3575 121.603 24.6459C120.96 24.9343 120.39 25.3622 119.933 25.8986C119.05 26.8727 118.566 28.145 118.579 29.4608C118.562 30.1417 118.682 30.8192 118.932 31.4524C119.183 32.0857 119.558 32.6617 120.036 33.1459C120.507 33.6189 121.067 33.9941 121.683 34.2501C122.299 34.5062 122.959 34.6379 123.626 34.6379C124.293 34.6379 124.954 34.5062 125.57 34.2501C126.186 33.9941 126.745 33.6189 127.216 33.1459C127.691 32.6597 128.065 32.0832 128.314 31.4504C128.563 30.8175 128.684 30.1411 128.668 29.4608C128.689 28.1429 128.212 26.8657 127.334 25.8844C126.879 25.3541 126.312 24.9309 125.675 24.6451C125.038 24.3593 124.346 24.2178 123.648 24.2308ZM126.905 31.4924C126.608 32.0965 126.141 32.601 125.563 32.9449C124.985 33.2887 124.319 33.457 123.648 33.4294C122.985 33.43 122.334 33.2539 121.762 32.9191C121.176 32.5733 120.698 32.069 120.385 31.464C120.067 30.8569 119.905 30.1797 119.914 29.4939C119.893 28.4426 120.284 27.425 121.003 26.6592C121.342 26.2855 121.756 25.987 122.217 25.7827C122.678 25.5785 123.176 25.473 123.681 25.473C124.185 25.473 124.683 25.5785 125.144 25.7827C125.606 25.987 126.019 26.2855 126.358 26.6592C127.077 27.425 127.468 28.4426 127.447 29.4939C127.44 30.1941 127.254 30.8806 126.905 31.4876V31.4924ZM137.668 29.1301C137.707 29.9441 137.646 30.7597 137.485 31.5585C137.309 32.1429 136.931 32.6454 136.419 32.9758C135.911 33.2956 135.321 33.4598 134.722 33.4483C134.108 33.466 133.503 33.3016 132.982 32.9758C132.461 32.6296 132.083 32.106 131.917 31.5018C131.768 30.7349 131.71 29.9532 131.742 29.1726V24.4812H130.474V29.2529C130.418 30.326 130.578 31.3995 130.946 32.4089C131.599 33.8955 132.857 34.6404 134.717 34.6436C135.543 34.6733 136.361 34.4669 137.074 34.0483C137.825 33.5793 138.378 32.8518 138.63 32.0026C138.864 31.1362 138.969 30.2399 138.941 29.3427V24.4812H137.659L137.668 29.1301ZM145.513 29.9002C145.026 29.4348 144.469 29.0475 143.863 28.7522C142.628 28.1002 142.015 27.4482 142.015 26.7962C142.015 26.6158 142.055 26.4376 142.132 26.2742C142.208 26.1109 142.32 25.9665 142.458 25.8513C142.739 25.5981 143.104 25.4598 143.481 25.4639C143.854 25.4911 144.217 25.592 144.551 25.7606C144.884 25.9293 145.181 26.1624 145.424 26.4466L146.225 25.6009C145.32 24.6875 144.424 24.2308 143.538 24.2308C143.191 24.2227 142.846 24.2832 142.522 24.4089C142.199 24.5345 141.903 24.7229 141.652 24.9631C141.401 25.2078 141.204 25.5022 141.073 25.8277C140.943 26.1531 140.881 26.5023 140.893 26.8529C140.881 27.5129 141.122 28.1523 141.567 28.6388C142.025 29.099 142.557 29.4776 143.142 29.7585C143.585 29.9713 144.006 30.226 144.401 30.5191C144.597 30.6678 144.757 30.8596 144.869 31.0799C144.98 31.3002 145.039 31.5431 145.042 31.79C145.046 32.0113 145 32.2307 144.907 32.4318C144.815 32.633 144.679 32.8108 144.509 32.9522C144.166 33.2602 143.721 33.4287 143.26 33.4247C142.865 33.4025 142.48 33.2931 142.132 33.1045C141.784 32.9158 141.481 32.6525 141.247 32.3333L140.459 33.2451C140.785 33.6965 141.215 34.0616 141.713 34.3086C142.211 34.5556 142.761 34.6771 143.316 34.6625C143.702 34.6742 144.085 34.6069 144.444 34.4647C144.802 34.3225 145.127 34.1085 145.4 33.8357C145.679 33.5659 145.898 33.2408 146.044 32.8812C146.19 32.5217 146.26 32.1355 146.249 31.7475C146.254 31.4061 146.192 31.067 146.066 30.7499C145.94 30.4328 145.752 30.144 145.513 29.9002Z" fill="#771B61"/>
<path d="M74.3668 40.1192C73.471 39.798 72.052 39.6468 70.1002 39.6468H67.3799V53.0501H71.5522C72.8622 53.1154 74.1687 52.8643 75.3615 52.3178C76.3711 51.7698 77.1791 50.9121 77.6669 49.8705C78.1698 48.8265 78.4248 47.6801 78.4118 46.5209C78.4454 45.1567 78.1029 43.8096 77.4218 42.6279C76.7337 41.4541 75.6505 40.5646 74.3668 40.1192ZM76.3186 49.5351C75.7814 50.4406 74.928 51.114 73.9236 51.4249C72.688 51.7115 71.419 51.8275 70.152 51.7698H68.6387V40.9507H69.5816C70.9425 40.895 72.3047 41.0237 73.6313 41.3334C74.7118 41.6427 75.6402 42.3409 76.2384 43.2941C76.8319 44.2632 77.1317 45.3842 77.1012 46.5209C77.1262 47.5791 76.8551 48.6233 76.3186 49.5351ZM80.1939 53.0312H81.4574V43.1287H80.1939V53.0312ZM80.8115 39.0468C80.6766 39.0449 80.5427 39.0713 80.4186 39.1242C80.2944 39.177 80.1825 39.2553 80.0902 39.3539C79.9934 39.4514 79.9169 39.5671 79.8652 39.6944C79.8134 39.8218 79.7873 39.9581 79.7885 40.0956C79.7869 40.2325 79.8127 40.3682 79.8646 40.4948C79.9164 40.6215 79.9931 40.7363 80.0902 40.8326C80.1845 40.929 80.2971 41.0056 80.4214 41.0579C80.5457 41.1102 80.6791 41.1372 80.8139 41.1372C80.9486 41.1372 81.082 41.1102 81.2063 41.0579C81.3306 41.0056 81.4432 40.929 81.5375 40.8326C81.6358 40.7363 81.7133 40.6207 81.7652 40.4931C81.8171 40.3655 81.8423 40.2286 81.8393 40.0909C81.8415 39.9532 81.8159 39.8166 81.764 39.6891C81.7122 39.5616 81.6351 39.446 81.5375 39.3491C81.4435 39.2517 81.3306 39.1746 81.2057 39.1226C81.0809 39.0706 80.9467 39.0448 80.8115 39.0468ZM86.1719 47.3807C84.9367 46.7288 84.3238 46.0768 84.3238 45.4248C84.3204 45.2404 84.3584 45.0576 84.4351 44.8899C84.5119 44.7222 84.6253 44.574 84.767 44.4563C85.0474 44.2031 85.4126 44.0648 85.79 44.0689C86.1625 44.0961 86.5259 44.1969 86.8593 44.3656C87.1926 44.5343 87.4894 44.7674 87.7324 45.0516L88.5338 44.2059C87.635 43.3145 86.7392 42.8673 85.8466 42.8641C85.4997 42.856 85.1545 42.9165 84.8309 43.0422C84.5074 43.1678 84.2117 43.3562 83.9608 43.5964C83.7099 43.8411 83.5128 44.1356 83.3821 44.461C83.2513 44.7864 83.1899 45.1356 83.2018 45.4862C83.1893 46.1462 83.4307 46.7856 83.8759 47.2721C84.3344 47.7311 84.8667 48.1097 85.4506 48.3918C85.8934 48.6046 86.3149 48.8593 86.7093 49.1524C86.9067 49.2989 87.068 49.4888 87.1808 49.7074C87.2936 49.9261 87.3549 50.1678 87.3599 50.4139C87.3633 50.6386 87.3159 50.8612 87.2212 51.0649C87.1265 51.2687 86.9869 51.4483 86.8131 51.5903C86.4699 51.8983 86.0244 52.0668 85.5637 52.0627C85.1687 52.0405 84.7834 51.9312 84.4354 51.7425C84.0874 51.5539 83.7853 51.2906 83.5506 50.9713L82.7492 51.8832C83.0753 52.3346 83.5064 52.6997 84.005 52.9466C84.5037 53.1936 85.0548 53.3151 85.6109 53.3005C85.9958 53.31 86.3787 53.2417 86.7367 53.0997C87.0948 52.9576 87.4206 52.7447 87.6947 52.4737C87.9717 52.203 88.1897 51.8776 88.3349 51.5182C88.4802 51.1588 88.5495 50.7731 88.5386 50.3855C88.5497 49.7029 88.2903 49.0437 87.8172 48.5524C87.3325 48.079 86.7775 47.6837 86.1719 47.3807ZM98.835 44.787C98.3795 44.1704 97.7819 43.6734 97.0931 43.3386C96.4042 43.0037 95.6448 42.8409 94.8796 42.8641C94.1356 42.8435 93.3978 43.0048 92.7299 43.3341C92.0621 43.6634 91.4844 44.1507 91.0467 44.7539C90.3004 45.7127 89.9014 46.8972 89.9152 48.113C89.892 48.7938 90.0053 49.4723 90.2482 50.1085C90.4911 50.7447 90.8588 51.3256 91.3295 51.817C91.7948 52.3016 92.3559 52.6834 92.977 52.9381C93.5981 53.1927 94.2654 53.3146 94.9361 53.2958C95.917 53.3207 96.8827 53.0498 97.7082 52.5183C98.5336 51.9868 99.1808 51.2191 99.5658 50.3146L98.5286 49.743C98.2489 50.2655 97.893 50.7432 97.4725 51.1603C96.7494 51.796 95.8128 52.1337 94.8513 52.1052C94.3542 52.1192 93.8603 52.0221 93.4053 51.8211C92.9503 51.6201 92.5456 51.3201 92.2206 50.943C91.5544 50.1762 91.1921 49.1911 91.2023 48.1745H99.9005C99.9308 46.9595 99.5559 45.7691 98.835 44.7917V44.787ZM91.3295 47.0642C91.5079 46.2923 91.9001 45.5865 92.461 45.028C93.1235 44.407 94.0008 44.0682 94.9078 44.0831C95.4769 44.0814 96.0391 44.2073 96.5532 44.4516C97.0636 44.6999 97.5091 45.064 97.8545 45.5151C98.1999 45.9662 98.4355 46.4917 98.5427 47.05L91.3295 47.0642ZM110.272 44.9429C109.86 44.2972 109.291 43.7675 108.618 43.4038C107.945 43.04 107.19 42.8543 106.425 42.8641C105.761 42.853 105.101 42.9827 104.49 43.2449C103.879 43.5071 103.331 43.8957 102.88 44.3854C102.407 44.8684 102.035 45.4409 101.785 46.0695C101.535 46.6981 101.412 47.3703 101.423 48.0469C101.393 49.4139 101.901 50.7379 102.838 51.732C103.283 52.2289 103.829 52.6243 104.44 52.8916C105.051 53.1589 105.712 53.2919 106.378 53.2816C107.134 53.2846 107.879 53.1091 108.554 52.7692C109.229 52.4294 109.814 51.9348 110.263 51.3257V53.0501H111.508V43.1287H110.268L110.272 44.9429ZM109.862 50.1398C109.531 50.7343 109.041 51.225 108.448 51.5572C107.862 51.9058 107.192 52.0887 106.51 52.0863C105.845 52.0869 105.193 51.9038 104.624 51.5572C104.028 51.1992 103.54 50.6867 103.21 50.0737C102.864 49.4638 102.682 48.7744 102.682 48.0729C102.682 47.3714 102.864 46.6819 103.21 46.0721C103.511 45.4575 103.982 44.943 104.568 44.5902C105.153 44.2374 105.828 44.0613 106.51 44.0831C107.024 44.0694 107.535 44.1666 108.009 44.3679C108.482 44.5692 108.907 44.87 109.254 45.25C109.971 46.0166 110.361 47.0341 110.338 48.0847C110.363 48.8059 110.199 49.521 109.862 50.1587V50.1398ZM116.463 47.3666C115.23 46.7146 114.614 46.0626 114.614 45.4106C114.612 45.2264 114.651 45.0439 114.727 44.8764C114.804 44.7089 114.917 44.5605 115.058 44.4421C115.338 44.1889 115.703 44.0506 116.081 44.0547C116.454 44.0813 116.818 44.1819 117.152 44.3505C117.487 44.5192 117.784 44.7527 118.028 45.0374L118.825 44.1917C117.926 43.3004 117.03 42.8531 116.137 42.85C115.79 42.8408 115.445 42.9008 115.121 43.0265C114.797 43.1522 114.502 43.3411 114.251 43.5823C113.999 43.826 113.801 44.1202 113.669 44.4457C113.537 44.7713 113.476 45.121 113.488 45.4721C113.475 46.132 113.717 46.7715 114.162 47.2579C114.62 47.717 115.153 48.0955 115.737 48.3776C116.18 48.5919 116.603 48.8465 117 49.1383C117.196 49.2857 117.356 49.4759 117.468 49.6944C117.58 49.913 117.641 50.1541 117.646 50.3997C117.649 50.6244 117.602 50.847 117.507 51.0508C117.412 51.2545 117.273 51.4341 117.099 51.5761C116.758 51.8842 116.314 52.0528 115.854 52.0485C115.459 52.0264 115.073 51.9171 114.724 51.7285C114.375 51.5398 114.072 51.2765 113.837 50.9572L113.054 51.869C113.379 52.3207 113.809 52.686 114.307 52.933C114.805 53.18 115.356 53.3013 115.911 53.2863C116.296 53.2959 116.679 53.2275 117.037 53.0855C117.395 52.9434 117.721 52.7306 117.995 52.4596C118.273 52.1895 118.491 51.8643 118.637 51.5047C118.782 51.1451 118.851 50.7591 118.839 50.3713C118.85 49.6887 118.59 49.0295 118.117 48.5382C117.629 48.0664 117.069 47.6757 116.458 47.3807L116.463 47.3666ZM127.777 51.1462C127.052 51.7809 126.114 52.1183 125.151 52.091C124.654 52.104 124.161 52.0065 123.706 51.8055C123.251 51.6046 122.846 51.3052 122.521 50.9288C121.856 50.1615 121.495 49.1764 121.507 48.1603H130.205C130.235 46.9432 129.859 45.7509 129.135 44.7728C128.682 44.1551 128.085 43.6572 127.397 43.3222C126.709 42.9872 125.949 42.8251 125.184 42.85C124.44 42.8298 123.701 42.9913 123.033 43.3205C122.364 43.6497 121.786 44.1368 121.347 44.7398C120.6 45.6985 120.201 46.883 120.215 48.0989C120.192 48.7796 120.305 49.4582 120.548 50.0943C120.791 50.7305 121.159 51.3115 121.63 51.8029C122.096 52.2878 122.658 52.6698 123.279 52.9245C123.901 53.1791 124.569 53.3008 125.241 53.2816C126.222 53.3052 127.187 53.0338 128.012 52.5025C128.837 51.9711 129.485 51.2041 129.871 50.3005L128.819 49.743C128.54 50.2655 128.184 50.7432 127.763 51.1603L127.777 51.1462ZM122.747 45.0185C123.41 44.3984 124.287 44.0597 125.194 44.0736C125.764 44.0723 126.328 44.1982 126.844 44.4421C127.353 44.6913 127.798 45.0558 128.142 45.5068C128.487 45.9578 128.722 46.4829 128.829 47.0406H121.615C121.796 46.2737 122.188 45.5731 122.747 45.0185Z" fill="#771B61"/>
<path d="M70.9957 60.0187C71.8687 59.5251 72.855 59.2678 73.8574 59.2723C74.767 59.2439 75.6697 59.4392 76.4866 59.8411C77.3035 60.243 78.0097 60.8393 78.5436 61.5778L79.5761 60.7699C78.2466 58.8801 76.3357 57.9352 73.8433 57.9352C72.9227 57.9104 72.0063 58.0692 71.1476 58.4026C70.2888 58.7359 69.5048 59.2371 68.8412 59.877C68.1645 60.52 67.6308 61.2988 67.275 62.1625C66.9192 63.0263 66.7492 63.9556 66.7762 64.8897C66.7295 66.6308 67.3216 68.3286 68.4404 69.6614C69.7542 71.2205 71.5614 72 73.8621 72C76.3074 72 78.212 71.1118 79.5761 69.3354L78.5436 68.5322C77.9938 69.2257 77.2928 69.7839 76.4944 70.1639C75.696 70.5438 74.8214 70.7356 73.9375 70.7244C73.1807 70.7468 72.427 70.6179 71.7204 70.3454C71.0138 70.0728 70.3684 69.662 69.8218 69.137C69.27 68.6044 68.8359 67.9617 68.5476 67.2504C68.2593 66.5391 68.1232 65.7751 68.1481 65.0078C68.1331 63.9825 68.3902 62.9716 68.893 62.0786C69.389 61.2093 70.1172 60.4959 70.9957 60.0187ZM86.2188 61.5117C85.515 61.4965 84.8166 61.6383 84.1741 61.9267C83.5316 62.2152 82.9611 62.643 82.5038 63.1794C81.6266 64.1576 81.1501 65.4314 81.1696 66.7464C81.1521 67.4273 81.2722 68.1047 81.5225 68.738C81.7729 69.3712 82.1483 69.9473 82.6264 70.4315C83.0966 70.9061 83.6559 71.2829 84.272 71.54C84.8882 71.7971 85.549 71.9294 86.2165 71.9294C86.8839 71.9294 87.5447 71.7971 88.1609 71.54C88.777 71.2829 89.3363 70.9061 89.8066 70.4315C90.2822 69.9458 90.6558 69.3693 90.9052 68.7364C91.1546 68.1034 91.2748 67.4267 91.2586 66.7464C91.2791 65.4284 90.8026 64.1512 89.9244 63.17C89.4674 62.6363 88.8981 62.2108 88.2574 61.924C87.6166 61.6373 86.9204 61.4965 86.2188 61.5117ZM89.4765 68.7732C89.1788 69.3773 88.7125 69.8819 88.1343 70.2257C87.556 70.5695 86.8906 70.7378 86.2188 70.7102C85.5559 70.7129 84.9045 70.5367 84.333 70.2C83.7459 69.8554 83.2685 69.3507 82.9564 68.7448C82.6379 68.1378 82.4758 67.4605 82.4849 66.7747C82.4641 65.7235 82.8551 64.7059 83.574 63.94C83.9133 63.5664 84.3268 63.2679 84.7879 63.0636C85.249 62.8593 85.7477 62.7538 86.2518 62.7538C86.756 62.7538 87.2546 62.8593 87.7157 63.0636C88.1769 63.2679 88.5903 63.5664 88.9297 63.94C89.6486 64.7059 90.0395 65.7235 90.0187 66.7747C90.0124 67.4765 89.8257 68.1648 89.4765 68.7732ZM99.9993 62.0644C99.4311 61.6958 98.7668 61.5035 98.0899 61.5117C96.6756 61.5117 95.4545 62.192 94.4645 63.5432V61.7668H93.2057V71.6882H94.4645V68.0598C94.4321 67.1585 94.4905 66.2563 94.6389 65.3668C94.8188 64.6263 95.2321 63.9636 95.8175 63.4771C96.3733 62.9824 97.0921 62.7114 97.8353 62.7164C99.1523 62.7164 99.9632 63.3747 100.268 64.6912C100.388 65.4456 100.435 66.2097 100.409 66.9732V71.6976H101.654V66.5763C101.704 65.5633 101.569 64.5496 101.253 63.5857C101 62.9626 100.562 62.4318 99.9993 62.0644ZM110.753 62.0644C110.192 61.6997 109.536 61.5075 108.867 61.5117C107.453 61.5117 106.232 62.192 105.242 63.5432V61.7668H103.964V71.6882H105.218V68.0598C105.179 67.148 105.233 66.2346 105.379 65.3338C105.562 64.5948 105.975 63.9331 106.557 63.444C107.113 62.9501 107.832 62.6792 108.575 62.6833C109.892 62.6833 110.703 63.3416 111.008 64.6582C111.127 65.4125 111.175 66.1767 111.149 66.9401V71.6646H112.394V66.5763C112.444 65.5633 112.308 64.5496 111.993 63.5857C111.745 62.9631 111.312 62.4319 110.753 62.0644ZM123.176 63.4345C122.72 62.8179 122.123 62.3209 121.434 61.9861C120.745 61.6512 119.986 61.4885 119.22 61.5117C118.476 61.4911 117.739 61.6524 117.071 61.9816C116.403 62.3109 115.825 62.7982 115.387 63.4015C114.642 64.3606 114.243 65.5448 114.256 66.7606C114.233 67.442 114.347 68.1211 114.59 68.758C114.832 69.3949 115.2 69.9767 115.67 70.4693C116.136 70.9532 116.697 71.3343 117.318 71.5882C117.939 71.842 118.606 71.963 119.277 71.9433C120.257 71.9667 121.221 71.6957 122.046 71.1653C122.871 70.6349 123.519 69.8693 123.907 68.9669L122.855 68.4C122.577 68.9232 122.221 69.4011 121.799 69.8173C121.076 70.4522 120.139 70.7897 119.178 70.7622C118.681 70.7761 118.187 70.6791 117.732 70.4781C117.277 70.277 116.872 69.9771 116.547 69.6C115.88 68.8336 115.518 67.8482 115.529 66.8314H124.237C124.269 65.6155 123.895 64.4236 123.176 63.444V63.4345ZM115.67 65.7117C115.849 64.9398 116.241 64.234 116.802 63.6755C117.464 63.0545 118.342 62.7157 119.249 62.7306C119.818 62.7289 120.38 62.8548 120.894 63.0991C121.404 63.348 121.849 63.7123 122.194 64.1633C122.54 64.6143 122.776 65.1395 122.883 65.6976L115.67 65.7117ZM131.12 62.7259C131.8 62.703 132.475 62.8488 133.085 63.1505C133.696 63.4522 134.222 63.9003 134.618 64.455L135.603 63.8267C135.331 63.3531 134.971 62.9361 134.542 62.5983C133.573 61.8622 132.383 61.4789 131.167 61.5117C130.2 61.4984 129.246 61.7377 128.399 62.2062C127.589 62.6549 126.917 63.3185 126.457 64.1243C125.986 64.9379 125.74 65.8626 125.745 66.8031C125.727 67.498 125.858 68.1887 126.131 68.828C126.404 69.4673 126.811 70.04 127.325 70.5071C128.342 71.451 129.687 71.9596 131.073 71.9244C133.119 71.9244 134.629 71.1779 135.603 69.685L134.608 69.0236C133.971 69.855 133.059 70.4325 132.036 70.6531C131.013 70.8738 129.944 70.7232 129.022 70.2283C128.404 69.8807 127.893 69.369 127.546 68.7496C127.188 68.1312 127.001 67.4283 127.004 66.7133C126.988 66.1745 127.088 65.6385 127.296 65.1415C127.504 64.6444 127.816 64.1977 128.211 63.8314C128.997 63.0931 130.043 62.6957 131.12 62.7259ZM139.983 61.781V58.1053H138.719V61.781H137.018V62.8865H138.719V71.6882H139.983V62.8723H141.958V61.7668L139.983 61.781Z" fill="#3CAFAB"/>
</svg>
