<svg width="195" height="96" viewBox="0 0 195 96" fill="none" xmlns="http://www.w3.org/2000/svg">
<path d="M51.8723 64.6421C50.7264 64.6429 49.6014 64.3339 48.6161 63.7476C47.6152 63.1669 46.7864 62.3299 46.2149 61.3223C45.3518 59.7908 45.126 57.9802 45.5863 56.2829C45.7996 55.4449 46.1767 54.6577 46.6957 53.9667C47.2147 53.2758 47.8653 52.6949 48.6098 52.2576C49.9053 51.4945 51.4284 51.2156 52.9095 51.4702L65.6009 29.0069C67.7181 25.2728 68.287 20.8547 67.185 16.7044C66.6606 14.6579 65.739 12.735 64.4727 11.0456C63.2064 9.35622 61.6204 7.93344 59.8052 6.85856C58.0134 5.78721 56.0239 5.08987 53.9564 4.80842C51.8889 4.52697 49.7859 4.66722 47.7738 5.22074C45.7467 5.77357 43.8505 6.72713 42.1966 8.02531C40.5428 9.3235 39.1648 10.9401 38.1437 12.7799C37.8183 13.3557 37.5286 13.9511 37.2762 14.5626L37.1882 14.7705H32.3291L32.4737 14.3232C32.9155 12.9657 33.4903 11.6554 34.1898 10.4114C35.5002 8.05231 37.2678 5.97937 39.3886 4.31423C41.5095 2.64908 43.9409 1.42529 46.5401 0.714686C49.1394 0.00408254 51.8541 -0.179012 54.525 0.17615C57.1958 0.531312 59.7689 1.41757 62.0933 2.78291C71.8429 8.54677 75.1871 21.3407 69.5548 31.3125L56.8571 53.7695C57.0946 54.0446 57.3051 54.3421 57.4857 54.6577C58.3444 56.181 58.576 57.9801 58.131 59.6719C57.6861 61.3638 56.5997 62.8148 55.1033 63.7161C54.1231 64.2975 53.005 64.6043 51.866 64.6043" fill="#3CAFAB"/>
<path d="M51.8723 78.9226C48.2573 78.9129 44.7101 77.9393 41.5949 76.1016C38.4796 74.2639 35.9086 71.6284 34.1457 68.4657L21.4731 45.9961C21.1241 46.0557 20.7711 46.0894 20.4171 46.0969C18.6793 46.0753 17.0208 45.3645 15.8049 44.12C14.5891 42.8756 13.9148 41.199 13.9299 39.4575C13.9269 38.2994 14.225 37.1606 14.7949 36.1532C15.3648 35.1458 16.1867 34.3046 17.1798 33.7125C18.4144 32.9824 19.8583 32.6898 21.2789 32.8817C22.6996 33.0737 24.0146 33.7391 25.0122 34.7708C26.1512 35.9444 26.8218 37.4955 26.8971 39.1309C26.9724 40.7664 26.4472 42.3728 25.4207 43.6465L38.0996 66.135C39.1238 67.9724 40.5028 69.5872 42.1562 70.885C43.8096 72.1828 45.7043 73.1378 47.7298 73.6942C49.7402 74.2511 51.8422 74.3953 53.9097 74.1182C55.9771 73.8411 57.9674 73.1483 59.7612 72.0815C61.578 71.0094 63.1657 69.5883 64.4332 67.8998C65.7006 66.2113 66.623 64.2886 67.1472 62.242C68.2513 58.0953 67.687 53.6799 65.5757 49.9458C65.2496 49.3699 64.8885 48.8145 64.4946 48.2828L64.3688 48.1064L66.7701 43.7851L67.0718 44.1378C68.0073 45.2099 68.8309 46.375 69.5296 47.6151C75.1556 57.5869 71.7926 70.3807 62.043 76.132C58.9628 77.9569 55.4505 78.9205 51.8723 78.9226Z" fill="#F1AE4B"/>
<path d="M20.4426 60.3208C17.7454 60.325 15.075 59.7845 12.591 58.7314C10.1069 57.6783 7.86011 56.1343 5.98482 54.1916C2.14731 50.241 0 44.9455 0 39.4323C0 33.9191 2.14731 28.6236 5.98482 24.673C7.86139 22.7329 10.1087 21.1914 12.5927 20.1405C15.0766 19.0896 17.7464 18.5509 20.4426 18.5564H45.8067C45.9279 18.215 46.0772 17.8842 46.253 17.5674C46.6725 16.8165 47.2371 16.1568 47.9138 15.6268C48.5905 15.0969 49.3657 14.7073 50.1943 14.4808C51.0173 14.2545 51.8775 14.197 52.7232 14.3117C53.5689 14.4265 54.3829 14.7111 55.1162 15.1485C56.613 16.0496 57.6988 17.5015 58.1416 19.1941C58.5844 20.8867 58.3491 22.6858 57.486 24.2069C57.0677 24.9594 56.5035 25.6207 55.8267 26.1518C55.1499 26.6829 54.3741 27.0732 53.5447 27.2998C52.723 27.5258 51.8643 27.5837 51.0198 27.4701C50.1753 27.3564 49.3622 27.0736 48.6291 26.6384C47.3295 25.8598 46.3372 24.6563 45.8192 23.2305L20.4426 23.2242C11.7051 23.2242 4.58933 30.4936 4.58304 39.4323C4.56846 43.7164 6.23984 47.8335 9.23468 50.8907C10.6877 52.3985 12.4291 53.5973 14.3548 54.4155C16.2805 55.2338 18.351 55.6546 20.4426 55.653C21.0858 55.6502 21.7281 55.6081 22.3661 55.527H22.5799L25.0377 59.8105L24.5914 59.905C23.2254 60.1959 21.8329 60.3437 20.4363 60.346" fill="white"/>
<path d="M89.5889 45.8513H91.3175V27.9928H89.5889V45.8513ZM103.613 33.0385C102.865 32.5519 101.991 32.2956 101.099 32.3015C99.2127 32.3015 97.5784 33.2086 96.2583 35.0102V32.6416H94.5862V45.8702H96.2583V41.0134C96.2159 39.8115 96.2959 38.6084 96.4972 37.4228C96.7398 36.4381 97.2878 35.5559 98.0624 34.9031C98.8058 34.2484 99.7631 33.8897 100.753 33.8952C102.509 33.8952 103.59 34.7729 103.996 36.5283C104.156 37.5341 104.219 38.553 104.185 39.5709V45.8702H105.851V39.0543C105.917 37.7032 105.734 36.3513 105.31 35.0669C104.973 34.2332 104.387 33.5246 103.632 33.0385H103.613ZM110.81 27.5707C110.325 27.8607 109.975 28.332 109.836 28.881C109.714 29.4392 109.661 30.0105 109.679 30.5818V32.6416H107.982V34.1157H109.704V45.8513H111.382V34.1157H114.104V32.6416H111.408V30.8652C111.385 30.3996 111.413 29.9329 111.489 29.4731C111.634 29.0384 112.036 28.8432 112.703 28.8432C113.246 28.8721 113.778 29.0092 114.268 29.2463V27.5455C113.64 27.3397 112.986 27.2252 112.325 27.2053C111.802 27.1845 111.284 27.3111 110.829 27.5707H110.81ZM127.324 34.8653C126.718 34.0469 125.923 33.3872 125.009 32.942C124.094 32.4967 123.085 32.2792 122.069 32.3078C121.077 32.2803 120.093 32.4954 119.202 32.9344C118.312 33.3734 117.542 34.0232 116.958 34.8275C115.963 36.1058 115.431 37.6851 115.449 39.3063C115.419 40.214 115.57 41.1187 115.893 41.9669C116.217 42.8152 116.708 43.5898 117.335 44.245C117.962 44.8844 118.715 45.3855 119.547 45.7164C120.378 46.0472 121.269 46.2004 122.163 46.1662C123.47 46.1991 124.757 45.8385 125.857 45.1311C126.957 44.4237 127.821 43.4019 128.336 42.1977L126.94 41.4418C126.563 42.1375 126.087 42.7741 125.526 43.3316C124.562 44.1792 123.313 44.6293 122.031 44.5914C121.368 44.6158 120.707 44.4923 120.097 44.2298C119.487 43.9672 118.943 43.5722 118.504 43.0733C117.616 42.0509 117.133 40.7374 117.147 39.3819H128.744C128.792 37.762 128.298 36.1726 127.343 34.8653H127.324ZM117.316 37.9016C117.554 36.8723 118.077 35.9312 118.825 35.1866C119.708 34.3586 120.878 33.9069 122.088 33.9267C122.846 33.9244 123.596 34.0923 124.281 34.418C124.962 34.7491 125.556 35.2347 126.016 35.8361C126.477 36.4375 126.791 37.1383 126.934 37.8827L117.316 37.9016ZM137.916 33.9204C138.823 33.8893 139.723 34.0836 140.537 34.4858C141.351 34.8881 142.053 35.4859 142.58 36.2259L143.894 35.3881C143.531 34.7567 143.051 34.2008 142.479 33.7503C141.19 32.7738 139.607 32.2652 137.991 32.3078C136.702 32.2901 135.43 32.6092 134.301 33.2338C133.219 33.8295 132.321 34.7121 131.705 35.785C131.079 36.8703 130.754 38.1033 130.762 39.3567C130.742 40.2806 130.92 41.198 131.284 42.0469C131.648 42.8957 132.191 43.6561 132.874 44.2765C134.231 45.5351 136.024 46.2132 137.872 46.1662C140.6 46.1662 142.613 45.171 143.913 43.1804L142.599 42.2922C141.748 43.4008 140.533 44.1708 139.168 44.4649C137.804 44.7591 136.38 44.5584 135.15 43.8985C134.326 43.435 133.645 42.7528 133.182 41.9268C132.709 41.1097 132.46 40.1818 132.459 39.237C132.439 38.5186 132.572 37.804 132.849 37.1412C133.127 36.4785 133.542 35.8829 134.069 35.3944C135.115 34.4143 136.503 33.8849 137.935 33.9204H137.916ZM149.733 27.7408H148.049V32.6416H145.779V34.1094H148.049V45.8513H149.733V34.1094H152.367V32.6416H149.733V27.7408ZM154.963 27.2053C154.783 27.2029 154.605 27.238 154.439 27.3085C154.274 27.379 154.125 27.4833 154.002 27.6148C153.873 27.7451 153.772 27.8996 153.704 28.0694C153.636 28.2392 153.603 28.4209 153.606 28.6038C153.602 28.7865 153.636 28.9679 153.705 29.1369C153.774 29.306 153.877 29.459 154.008 29.5865C154.13 29.7169 154.279 29.8205 154.443 29.8909C154.607 29.9614 154.785 29.9971 154.963 29.9959C155.145 29.9994 155.325 29.9654 155.492 29.896C155.66 29.8267 155.812 29.7234 155.938 29.5928C156.067 29.4631 156.168 29.3087 156.236 29.1388C156.304 28.9688 156.337 28.7869 156.334 28.6038C156.336 28.4209 156.303 28.2392 156.235 28.0694C156.167 27.8996 156.066 27.7451 155.938 27.6148C155.812 27.4833 155.661 27.3791 155.493 27.3087C155.325 27.2382 155.145 27.2031 154.963 27.2053ZM154.14 45.8513H155.824V32.6227H154.14V45.8513ZM164.864 32.3078C163.925 32.2876 162.994 32.4766 162.137 32.8612C161.281 33.2458 160.52 33.8163 159.91 34.5314C158.733 35.8302 158.089 37.5266 158.106 39.2811C158.083 40.189 158.243 41.0922 158.577 41.9366C158.911 42.7809 159.411 43.549 160.049 44.1946C160.677 44.8252 161.423 45.3255 162.244 45.6669C163.066 46.0082 163.946 46.1839 164.835 46.1839C165.725 46.1839 166.605 46.0082 167.427 45.6669C168.248 45.3255 168.994 44.8252 169.622 44.1946C170.256 43.5463 170.753 42.7777 171.086 41.9338C171.418 41.09 171.579 40.1881 171.558 39.2811C171.586 37.5238 170.95 35.8209 169.779 34.5125C169.172 33.8054 168.417 33.2412 167.567 32.8602C166.718 32.4791 165.794 32.2905 164.864 32.3078ZM169.207 41.9898C168.81 42.7953 168.189 43.4681 167.418 43.9265C166.647 44.3849 165.76 44.6093 164.864 44.5725C163.98 44.5733 163.112 44.3385 162.349 43.8922C161.568 43.4311 160.932 42.7587 160.514 41.952C160.089 41.1426 159.873 40.2396 159.885 39.3252C159.857 37.9235 160.379 36.5667 161.337 35.5456C161.79 35.0474 162.341 34.6494 162.956 34.377C163.571 34.1046 164.236 33.964 164.908 33.964C165.58 33.964 166.245 34.1046 166.86 34.377C167.474 34.6494 168.026 35.0474 168.478 35.5456C169.437 36.5667 169.958 37.9235 169.93 39.3252C169.921 40.2588 169.672 41.1742 169.207 41.9835V41.9898ZM183.558 38.8402C183.61 39.9254 183.528 41.013 183.313 42.078C183.079 42.8572 182.575 43.5273 181.893 43.9678C181.216 44.3942 180.429 44.6131 179.63 44.5977C178.811 44.6213 178.004 44.4021 177.31 43.9678C176.615 43.5061 176.111 42.808 175.889 42.0024C175.692 40.9798 175.613 39.9376 175.657 38.8968V32.6416H173.966V39.0039C173.891 40.4347 174.104 41.8659 174.594 43.2119C175.466 45.1941 177.142 46.1872 179.623 46.1914C180.725 46.2311 181.815 45.9558 182.766 45.3977C183.767 44.7724 184.504 43.8024 184.841 42.6701C185.153 41.515 185.293 40.3198 185.256 39.1236V32.6416H183.546L183.558 38.8402ZM194.018 39.8669C193.368 39.2463 192.626 38.73 191.818 38.3362C190.171 37.4669 189.354 36.5976 189.354 35.7283C189.354 35.4877 189.407 35.2501 189.509 35.0323C189.611 34.8146 189.76 34.6221 189.945 34.4684C190.319 34.1308 190.806 33.9464 191.309 33.9519C191.806 33.9882 192.29 34.1226 192.735 34.3475C193.179 34.5724 193.575 34.8832 193.899 35.2622L194.967 34.1346C193.761 32.9167 192.566 32.3078 191.384 32.3078C190.922 32.2969 190.462 32.3776 190.03 32.5451C189.599 32.7127 189.205 32.9638 188.87 33.2842C188.535 33.6104 188.273 34.003 188.098 34.4369C187.924 34.8708 187.842 35.3364 187.858 35.8039C187.841 36.6838 188.163 37.5364 188.757 38.185C189.367 38.7986 190.077 39.3035 190.856 39.678C191.447 39.9617 192.009 40.3013 192.535 40.6922C192.797 40.8904 193.01 41.1462 193.159 41.4399C193.307 41.7337 193.386 42.0575 193.39 42.3867C193.395 42.6818 193.333 42.9742 193.21 43.2424C193.087 43.5106 192.906 43.7477 192.679 43.9363C192.222 44.347 191.628 44.5716 191.014 44.5662C190.487 44.5366 189.973 44.3909 189.509 44.1393C189.045 43.8878 188.642 43.5367 188.329 43.1111L187.28 44.3269C187.713 44.9287 188.287 45.4155 188.951 45.7448C189.614 46.0741 190.348 46.2361 191.089 46.2166C191.603 46.2323 192.114 46.1425 192.592 45.953C193.07 45.7634 193.504 45.478 193.867 45.1143C194.239 44.7545 194.531 44.3211 194.726 43.8417C194.921 43.3622 195.014 42.8474 194.999 42.33C195.006 41.8748 194.923 41.4227 194.755 40.9999C194.587 40.5771 194.336 40.192 194.018 39.8669Z" fill="white"/>
<path d="M99.1562 53.4923C97.9619 53.064 96.0698 52.8624 93.4674 52.8624H89.8403V70.7335H95.4034C97.1501 70.8206 98.892 70.4857 100.483 69.7571C101.829 69.0264 102.906 67.8829 103.556 66.4941C104.227 65.1021 104.567 63.5735 104.55 62.0279C104.594 60.2089 104.138 58.4128 103.23 56.8373C102.312 55.2722 100.868 54.0862 99.1562 53.4923ZM101.759 66.0468C101.042 67.2541 99.9045 68.152 98.5653 68.5666C96.9178 68.9487 95.2258 69.1034 93.5365 69.0264H91.5187V54.601H92.7759C94.5905 54.5267 96.4068 54.6984 98.1756 55.1113C99.6162 55.5236 100.854 56.4545 101.652 57.7255C102.443 59.0176 102.843 60.5124 102.802 62.0279C102.835 63.4389 102.474 64.8311 101.759 66.0468ZM106.926 70.7083H108.61V57.505H106.926V70.7083ZM107.749 52.0624C107.569 52.0599 107.391 52.0951 107.225 52.1656C107.06 52.2361 106.911 52.3404 106.787 52.4718C106.658 52.6018 106.556 52.7562 106.487 52.9259C106.418 53.0957 106.384 53.2775 106.385 53.4608C106.383 53.6433 106.417 53.8243 106.487 53.9932C106.556 54.162 106.658 54.3151 106.787 54.4435C106.913 54.5721 107.063 54.6742 107.229 54.7439C107.395 54.8137 107.573 54.8496 107.752 54.8496C107.932 54.8496 108.11 54.8137 108.276 54.7439C108.441 54.6742 108.591 54.5721 108.717 54.4435C108.848 54.3151 108.952 54.161 109.021 53.9909C109.09 53.8208 109.124 53.6382 109.12 53.4545C109.122 53.271 109.088 53.0888 109.019 52.9188C108.95 52.7489 108.847 52.5947 108.717 52.4655C108.592 52.3357 108.441 52.2329 108.275 52.1635C108.108 52.0942 107.929 52.0598 107.749 52.0624ZM114.896 63.1744C113.249 62.3051 112.432 61.4358 112.432 60.5665C112.428 60.3206 112.478 60.0768 112.581 59.8532C112.683 59.6297 112.834 59.4321 113.023 59.2751C113.397 58.9375 113.884 58.7531 114.387 58.7586C114.884 58.7948 115.368 58.9293 115.813 59.1542C116.257 59.379 116.653 59.6899 116.977 60.0688L118.046 58.9412C116.847 57.7528 115.653 57.1564 114.463 57.1522C114 57.1414 113.54 57.222 113.108 57.3896C112.677 57.5571 112.283 57.8083 111.948 58.1286C111.614 58.4548 111.351 58.8474 111.177 59.2813C111.002 59.7153 110.92 60.1809 110.936 60.6483C110.92 61.5283 111.241 62.3809 111.835 63.0295C112.446 63.6416 113.156 64.1463 113.935 64.5224C114.525 64.8062 115.087 65.1458 115.613 65.5366C115.876 65.7319 116.091 65.9851 116.242 66.2766C116.392 66.5682 116.474 66.8904 116.48 67.2185C116.485 67.5182 116.422 67.815 116.295 68.0866C116.169 68.3583 115.983 68.5978 115.751 68.787C115.294 69.1977 114.7 69.4224 114.085 69.417C113.559 69.3874 113.045 69.2416 112.581 68.9901C112.117 68.7385 111.714 68.3874 111.401 67.9618L110.333 69.1776C110.768 69.7796 111.342 70.2663 112.007 70.5955C112.672 70.9248 113.407 71.0868 114.148 71.0674C114.662 71.0801 115.172 70.989 115.649 70.7996C116.127 70.6102 116.561 70.3264 116.927 69.965C117.296 69.604 117.587 69.1702 117.78 68.691C117.974 68.2118 118.066 67.6975 118.052 67.1807C118.067 66.2706 117.721 65.3917 117.09 64.7366C116.444 64.1054 115.704 63.5784 114.896 63.1744ZM131.781 59.716C131.173 58.8939 130.376 58.2313 129.458 57.7848C128.54 57.3383 127.527 57.1213 126.507 57.1522C125.515 57.1248 124.531 57.3398 123.64 57.7789C122.75 58.2179 121.98 58.8676 121.396 59.672C120.401 60.9503 119.869 62.5296 119.887 64.1508C119.857 65.0585 120.008 65.9632 120.331 66.8114C120.655 67.6596 121.146 68.4342 121.773 69.0894C122.394 69.7355 123.142 70.2446 123.97 70.5842C124.798 70.9237 125.688 71.0861 126.582 71.0611C127.89 71.0943 129.177 70.7331 130.278 70.0244C131.379 69.3157 132.242 68.2921 132.755 67.0862L131.372 66.324C130.999 67.0207 130.524 67.6576 129.964 68.2138C129 69.0614 127.751 69.5116 126.469 69.4737C125.806 69.4923 125.148 69.3629 124.541 69.0948C123.934 68.8268 123.395 68.4269 122.961 67.924C122.073 66.9016 121.59 65.5882 121.604 64.2326H133.201C133.242 62.6127 132.742 61.0255 131.781 59.7223V59.716ZM121.773 62.7523C122.011 61.7231 122.534 60.782 123.282 60.0373C124.165 59.2093 125.335 58.7576 126.544 58.7774C127.303 58.7752 128.053 58.9431 128.738 59.2688C129.419 59.5999 130.013 60.0854 130.473 60.6868C130.934 61.2883 131.248 61.989 131.391 62.7334L121.773 62.7523ZM147.03 59.9239C146.481 59.063 145.722 58.3567 144.824 57.8717C143.927 57.3867 142.921 57.1391 141.901 57.1522C141.015 57.1373 140.136 57.3103 139.321 57.6599C138.506 58.0094 137.775 58.5277 137.174 59.1806C136.543 59.8246 136.047 60.5879 135.713 61.426C135.38 62.2642 135.216 63.1604 135.232 64.0626C135.191 65.8852 135.868 67.6506 137.117 68.976C137.711 69.6385 138.44 70.1657 139.254 70.5222C140.069 70.8786 140.95 71.0559 141.838 71.0422C142.845 71.0462 143.839 70.8121 144.739 70.359C145.639 69.9059 146.42 69.2465 147.018 68.4343V70.7335H148.677V57.505H147.024L147.03 59.9239ZM146.484 66.8532C146.041 67.6458 145.389 68.3 144.598 68.7429C143.816 69.2078 142.923 69.4516 142.014 69.4485C141.127 69.4492 140.257 69.2051 139.5 68.7429C138.705 68.2657 138.053 67.5823 137.614 66.765C137.153 65.9518 136.91 65.0325 136.91 64.0972C136.91 63.1619 137.153 62.2426 137.614 61.4295C138.015 60.61 138.644 59.924 139.424 59.4536C140.205 58.9832 141.104 58.7484 142.014 58.7774C142.7 58.7593 143.381 58.8888 144.012 59.1572C144.643 59.4257 145.209 59.8267 145.673 60.3334C146.629 61.3555 147.148 62.7122 147.118 64.113C147.152 65.0745 146.933 66.0281 146.484 66.8784V66.8532ZM155.284 63.1555C153.641 62.2862 152.82 61.4169 152.82 60.5476C152.817 60.3019 152.868 60.0585 152.97 59.8352C153.072 59.6118 153.223 59.4141 153.411 59.2562C153.785 58.9186 154.271 58.7342 154.775 58.7397C155.272 58.7751 155.758 58.9092 156.204 59.1341C156.649 59.359 157.046 59.6703 157.371 60.0499L158.433 58.9223C157.235 57.7339 156.04 57.1375 154.85 57.1333C154.387 57.1211 153.927 57.2011 153.495 57.3687C153.064 57.5363 152.669 57.7882 152.336 58.1097C151.999 58.4346 151.735 58.8269 151.559 59.261C151.384 59.6951 151.301 60.1614 151.317 60.6294C151.301 61.5094 151.623 62.362 152.216 63.0106C152.828 63.6227 153.537 64.1274 154.316 64.5035C154.907 64.7892 155.471 65.1287 156.001 65.5177C156.262 65.7143 156.475 65.9679 156.624 66.2593C156.774 66.5507 156.855 66.8722 156.862 67.1996C156.866 67.4993 156.803 67.7961 156.677 68.0677C156.55 68.3394 156.364 68.5789 156.133 68.7681C155.678 69.179 155.085 69.4038 154.473 69.3981C153.945 69.3685 153.431 69.2228 152.966 68.9713C152.501 68.7198 152.097 68.3687 151.783 67.9429L150.739 69.1587C151.172 69.761 151.746 70.248 152.41 70.5774C153.074 70.9067 153.808 71.0685 154.548 71.0485C155.062 71.0612 155.572 70.9701 156.05 70.7807C156.527 70.5913 156.961 70.3075 157.327 69.9461C157.697 69.586 157.989 69.1524 158.183 68.673C158.376 68.1935 158.468 67.6788 158.452 67.1618C158.467 66.2517 158.121 65.3728 157.49 64.7177C156.839 64.0886 156.092 63.5676 155.278 63.1744L155.284 63.1555ZM170.37 68.1949C169.403 69.0413 168.153 69.4912 166.869 69.4548C166.206 69.472 165.548 69.342 164.942 69.0741C164.335 68.8062 163.796 68.4069 163.361 67.9051C162.475 66.8821 161.994 65.5686 162.01 64.2138H173.608C173.648 62.5909 173.145 61.0012 172.181 59.6972C171.576 58.8735 170.781 58.2097 169.863 57.763C168.945 57.3163 167.933 57.1002 166.913 57.1333C165.92 57.1064 164.936 57.3217 164.044 57.7607C163.153 58.1996 162.382 58.849 161.796 59.6531C160.801 60.9314 160.269 62.5107 160.288 64.1319C160.257 65.0396 160.408 65.9442 160.732 66.7925C161.055 67.6407 161.546 68.4153 162.173 69.0705C162.795 69.7171 163.544 70.2265 164.373 70.566C165.202 70.9055 166.093 71.0677 166.988 71.0422C168.296 71.0737 169.583 70.7118 170.683 70.0033C171.783 69.2948 172.647 68.2722 173.161 67.0673L171.76 66.324C171.387 67.0207 170.912 67.6576 170.351 68.2138L170.37 68.1949ZM163.663 60.0247C164.547 59.1979 165.716 58.7463 166.926 58.7649C167.686 58.7631 168.438 58.931 169.126 59.2562C169.805 59.5885 170.397 60.0744 170.857 60.6758C171.316 61.2771 171.629 61.9772 171.772 62.7208H162.155C162.396 61.6983 162.918 60.7642 163.663 60.0247Z" fill="white"/>
<path d="M94.6609 80.025C95.825 79.3668 97.14 79.0238 98.4765 79.0297C99.6893 78.9919 100.893 79.2523 101.982 79.7882C103.071 80.324 104.013 81.1191 104.725 82.1038L106.101 81.0266C104.329 78.5069 101.781 77.247 98.4577 77.247C97.2302 77.2138 96.0084 77.4257 94.8634 77.8701C93.7184 78.3146 92.6731 78.9829 91.7882 79.836C90.886 80.6933 90.1744 81.7318 89.7 82.8834C89.2256 84.0351 88.9989 85.2742 89.035 86.5196C88.9726 88.841 89.7621 91.1048 91.2539 92.8819C93.0056 94.9607 95.4153 96.0001 98.4828 96.0001C101.743 96.0001 104.283 94.8158 106.101 92.4472L104.725 91.3764C103.992 92.301 103.057 93.0452 101.993 93.5519C100.928 94.0585 99.7618 94.3142 98.5834 94.2992C97.5743 94.3291 96.5694 94.1573 95.6272 93.7939C94.685 93.4305 93.8245 92.8828 93.0957 92.1827C92.36 91.4726 91.7812 90.6156 91.3968 89.6672C91.0124 88.7189 90.831 87.7002 90.8642 86.6771C90.8442 85.31 91.1869 83.9622 91.8574 82.7715C92.5187 81.6124 93.4896 80.6613 94.6609 80.025ZM114.958 82.0156C114.02 81.9954 113.089 82.1845 112.232 82.569C111.375 82.9536 110.615 83.5241 110.005 84.2393C108.835 85.5435 108.2 87.242 108.226 88.9952C108.203 89.9031 108.363 90.8063 108.697 91.6507C109.031 92.495 109.531 93.2631 110.169 93.9087C110.795 94.5416 111.541 95.0439 112.363 95.3867C113.184 95.7295 114.065 95.9059 114.955 95.9059C115.845 95.9059 116.726 95.7295 117.548 95.3867C118.369 95.0439 119.115 94.5416 119.742 93.9087C120.376 93.2611 120.874 92.4925 121.207 91.6485C121.54 90.8046 121.7 89.9024 121.678 88.9952C121.705 87.238 121.07 85.535 119.899 84.2267C119.29 83.5151 118.531 82.9477 117.676 82.5654C116.822 82.1831 115.894 81.9953 114.958 82.0156ZM119.302 91.6976C118.905 92.5031 118.283 93.1759 117.512 93.6343C116.741 94.0928 115.854 94.3172 114.958 94.2803C114.075 94.2839 113.206 94.0489 112.444 93.6C111.661 93.1405 111.025 92.4677 110.609 91.6598C110.184 90.8504 109.968 89.9474 109.98 89.033C109.952 87.6314 110.473 86.2746 111.432 85.2534C111.884 84.7552 112.436 84.3572 113.051 84.0848C113.665 83.8125 114.33 83.6718 115.002 83.6718C115.675 83.6718 116.339 83.8125 116.954 84.0848C117.569 84.3572 118.12 84.7552 118.573 85.2534C119.531 86.2746 120.053 87.6314 120.025 89.033C120.017 89.9687 119.768 90.8865 119.302 91.6976ZM133.332 82.7526C132.575 82.2611 131.689 82.0047 130.787 82.0156C128.901 82.0156 127.273 82.9227 125.953 84.7243V82.3558H124.274V95.5843H125.953V90.7464C125.909 89.5448 125.987 88.3418 126.185 87.1558C126.425 86.1684 126.976 85.2848 127.757 84.6361C128.498 83.9765 129.456 83.6152 130.447 83.6219C132.203 83.6219 133.284 84.4996 133.691 86.255C133.85 87.2609 133.913 88.2797 133.879 89.2976V95.5969H135.539V88.7685C135.606 87.4177 135.425 86.0661 135.005 84.781C134.666 83.9501 134.083 83.2425 133.332 82.7526ZM147.671 82.7526C146.922 82.2663 146.048 82.0101 145.156 82.0156C143.271 82.0156 141.643 82.9227 140.322 84.7243V82.3558H138.619V95.5843H140.291V90.7464C140.239 89.5307 140.31 88.3129 140.505 87.1117C140.749 86.1264 141.3 85.2442 142.076 84.592C142.818 83.9335 143.776 83.5723 144.767 83.5778C146.523 83.5778 147.604 84.4555 148.01 86.2109C148.17 87.2168 148.233 88.2356 148.199 89.2535V95.5528H149.858V88.7685C149.926 87.4177 149.744 86.0661 149.324 84.781C148.994 83.9508 148.417 83.2426 147.671 82.7526ZM164.234 84.5794C163.627 83.7572 162.83 83.0946 161.912 82.6482C160.993 82.2017 159.981 81.9847 158.96 82.0156C157.968 81.9881 156.985 82.2032 156.094 82.6422C155.204 83.0812 154.434 83.731 153.85 84.5353C152.856 85.8141 152.324 87.3931 152.341 89.0141C152.311 89.9227 152.462 90.8282 152.786 91.6774C153.11 92.5266 153.6 93.3023 154.227 93.9591C154.848 94.6043 155.596 95.1125 156.424 95.451C157.252 95.7894 158.142 95.9507 159.036 95.9245C160.342 95.9556 161.629 95.5943 162.729 94.8871C163.829 94.1799 164.692 93.1591 165.209 91.9559L163.807 91.2C163.436 91.8977 162.961 92.5348 162.399 93.0898C161.434 93.9363 160.186 94.3863 158.904 94.3496C158.241 94.3682 157.583 94.2388 156.976 93.9708C156.369 93.7028 155.83 93.3029 155.396 92.8C154.507 91.7782 154.024 90.4644 154.039 89.1086H165.649C165.691 87.4874 165.194 85.8981 164.234 84.592V84.5794ZM154.227 87.6157C154.465 86.5864 154.988 85.6454 155.736 84.9007C156.619 84.0727 157.789 83.621 158.998 83.6408C159.757 83.6386 160.506 83.8064 161.192 84.1322C161.872 84.4641 162.465 84.9498 162.926 85.5511C163.386 86.1524 163.701 86.8527 163.845 87.5968L154.227 87.6157ZM174.826 83.6345C175.733 83.604 176.633 83.7985 177.447 84.2007C178.261 84.6029 178.963 85.2004 179.491 85.9401L180.804 85.1023C180.442 84.4709 179.961 83.9149 179.39 83.4644C178.098 82.483 176.51 81.972 174.889 82.0156C173.6 81.9979 172.328 82.317 171.199 82.9416C170.118 83.5399 169.222 84.4247 168.609 85.4991C167.982 86.5839 167.654 87.8168 167.66 89.0708C167.636 89.9974 167.811 90.9184 168.175 91.7707C168.538 92.6231 169.081 93.3867 169.766 94.0095C171.122 95.2681 172.916 95.9462 174.763 95.8993C177.492 95.8993 179.505 94.904 180.804 92.9134L179.478 92.0315C178.627 93.1401 177.412 93.9101 176.048 94.2042C174.683 94.4984 173.259 94.2977 172.029 93.6378C171.205 93.1743 170.524 92.4921 170.062 91.6661C169.584 90.8416 169.334 89.9044 169.339 88.9511C169.318 88.2327 169.451 87.5181 169.728 86.8553C170.006 86.1926 170.422 85.597 170.948 85.1086C171.996 84.1241 173.39 83.5944 174.826 83.6345ZM186.644 82.3747V77.4738H184.959V82.3747H182.69V83.8487H184.959V95.5843H186.644V83.8298H189.278V82.3558L186.644 82.3747Z" fill="#3CAFAB"/>
</svg>
